<?xml version="1.0" encoding="UTF-8" standalone="no"?>
<!-- Generator: Adobe Illustrator 16.0.0, SVG Export Plug-In . SVG Version: 6.00 Build 0)  -->

<svg
   xmlns:dc="http://purl.org/dc/elements/1.1/"
   xmlns:cc="http://creativecommons.org/ns#"
   xmlns:rdf="http://www.w3.org/1999/02/22-rdf-syntax-ns#"
   xmlns:svg="http://www.w3.org/2000/svg"
   xmlns="http://www.w3.org/2000/svg"
   xmlns:xlink="http://www.w3.org/1999/xlink"
   xmlns:sodipodi="http://sodipodi.sourceforge.net/DTD/sodipodi-0.dtd"
   xmlns:inkscape="http://www.inkscape.org/namespaces/inkscape"
   version="1.1"
   id="Layer_1"
   x="0px"
   y="0px"
   width="135.595px"
   height="80.839px"
   viewBox="0 0 135.595 80.839"
   enable-background="new 0 0 135.595 80.839"
   xml:space="preserve"
   inkscape:version="0.91 r13725"
   sodipodi:docname="stats-cattle-edited.svg"><metadata
   id="metadata4404"><rdf:RDF><cc:Work
       rdf:about=""><dc:format>image/svg+xml</dc:format><dc:type
         rdf:resource="http://purl.org/dc/dcmitype/StillImage" /><dc:title></dc:title></cc:Work></rdf:RDF></metadata><defs
   id="defs4402"><inkscape:path-effect
     effect="spiro"
     id="path-effect4412"
     is_visible="true" /><inkscape:path-effect
     effect="spiro"
     id="path-effect4408"
     is_visible="true" /></defs><sodipodi:namedview
   pagecolor="#ffffff"
   bordercolor="#666666"
   borderopacity="1"
   objecttolerance="10"
   gridtolerance="10"
   guidetolerance="10"
   inkscape:pageopacity="0"
   inkscape:pageshadow="2"
   inkscape:window-width="1280"
   inkscape:window-height="657"
   id="namedview4400"
   showgrid="false"
   inkscape:zoom="3.0454689"
   inkscape:cx="4.8845001"
   inkscape:cy="38.431681"
   inkscape:window-x="-8"
   inkscape:window-y="-8"
   inkscape:window-maximized="1"
   inkscape:current-layer="Layer_1" />
<g
   id="g4370">
	<defs
   id="defs4372">
		<rect
   id="SVGID_1_"
   width="135.595"
   height="80.839" />
	</defs>
	<clipPath
   id="SVGID_2_">
		<use
   xlink:href="#SVGID_1_"
   overflow="visible"
   id="use4376" />
	</clipPath>
	<g
   clip-path="url(#SVGID_2_)"
   id="g4378">
		<defs
   id="defs4380">
			<rect
   id="SVGID_3_"
   width="135.595"
   height="80.839" />
		</defs>
		<clipPath
   id="SVGID_4_">
			<use
   xlink:href="#SVGID_3_"
   overflow="visible"
   id="use4384" />
		</clipPath>
		<g
   opacity="0"
   clip-path="url(#SVGID_4_)"
   id="g4386">
			<g
   id="g4388">
				<defs
   id="defs4390">
					<rect
   id="SVGID_5_"
   x="1"
   y="1.036"
   width="133.631"
   height="78.82" />
				</defs>
				<clipPath
   id="SVGID_6_">
					<use
   xlink:href="#SVGID_5_"
   overflow="visible"
   id="use4394" />
				</clipPath>
				<path
   clip-path="url(#SVGID_6_)"
   fill="#4C4C4C"
   d="M113.295,26.819c-0.003,0-0.007,0-0.01,0l-0.09-0.043      c-0.03,0.012-0.061,0.027-0.101,0.044c-0.37,0.167-0.751,0.312-1.14,0.434c-1.3,0.413-4.78,3.876-7.05,8.155      c-2.71,5.108-8.45,10.466-15.391,14.377c-0.029,0.399-0.069,0.785-0.109,1.146c0.028,1.704,0.385,3.386,1.05,4.954      c0.413,1.113,0.736,2.257,0.97,3.42c0.19,1.767,0.123,3.553-0.2,5.301c-0.115,0.679-0.176,1.367-0.18,2.057      c0.255,3.399,1.393,6.674,3.3,9.5c0.731,0.891,1.178,1.981,1.28,3.13c0.001,0.303-0.243,0.549-0.546,0.55h-0.004h-8.311      c-0.153,0.002-0.3-0.064-0.399-0.18c-0.107-0.108-0.162-0.259-0.15-0.41c0.01-0.05,0.35-4.46-1.75-13.8      c-0.262-0.821-0.668-1.59-1.2-2.268c-0.317-0.387-0.564-0.826-0.729-1.3c-0.1-0.31-0.2-0.6-0.29-0.876      c-0.471,1.29-1.011,2.553-1.62,3.782c-0.351,0.669-0.65,1.361-0.9,2.074c-1.46,5.822-0.27,8.182,0.61,9.892      c0.476,0.768,0.757,1.64,0.82,2.54c-0.001,0.305-0.248,0.551-0.552,0.55h-0.009h-8.3c-0.158-0.002-0.31-0.067-0.42-0.18      c-0.102-0.119-0.147-0.274-0.13-0.431c0.01-0.049,0.569-4.529,1.909-13.983c0.037-0.754-0.135-1.503-0.5-2.164      c-0.246-0.425-0.377-0.908-0.381-1.399c0.262-5.257-0.318-7.264-1.738-11.67c-8.27,0.915-20.87,0.528-25.97-1.094      c-4.95-1.578-10.26-3.106-13.18-3.883c-0.315,2.525-0.877,5.016-1.68,7.432c-0.442,1.134-0.715,2.328-0.81,3.541      c0.035,1.332-0.113,2.661-0.44,3.952c-0.172,0.724-0.289,1.459-0.35,2.2c-0.086,2.629,0.296,5.252,1.13,7.746      c0.581,1.661,1.385,3.235,2.39,4.68c1.07,1.7,2.01,3.17,2.01,4.71c-0.001,0.305-0.248,0.551-0.552,0.551      c-0.003,0-0.006,0-0.008-0.001h-9.09c-0.303,0.002-0.549-0.244-0.55-0.546v-0.004c0-0.63,0.02-1.159,0.04-1.64      c0.124-1.51-0.063-3.027-0.55-4.46c-0.41-1.341-0.92-3.46-1.51-5.919c-0.92-3.844-1.97-8.2-2.95-10.872      c-0.31-0.771-0.742-1.485-1.28-2.118c-0.199-0.241-0.382-0.494-0.55-0.758c-0.01,0.02-0.03,0.042-0.04,0.063      c-0.645,0.858-1.17,1.8-1.56,2.8c-0.498,1.422-1.138,2.792-1.91,4.086c-0.46,0.851-0.9,1.652-1.14,2.241      c-0.899,2.369-1.39,4.874-1.45,7.407c-0.01,1.888,0.455,3.748,1.35,5.41c0.623,1.164,1.001,2.443,1.11,3.76      c-0.001,0.305-0.248,0.551-0.552,0.55h-0.008h-9.09c-0.303,0.002-0.549-0.244-0.55-0.546v-0.004c0-1.01,0.26-3.42,0.59-6.47      c0.54-4.941,1.27-11.711,1.27-16.219c-0.037-0.78-0.209-1.549-0.51-2.27c-0.33-0.936-0.68-1.9,0.06-2.637      c0.75-0.75,3.55-6.783,3.55-8.734c0-1.187-0.8-5.827-1.5-9.921c-0.53-3.109-1.03-6.045-1.26-7.782      c-0.476-2.997-0.419-6.054,0.17-9.031c-2.373,5.114-3.517,10.712-3.34,16.347v0.008c0.79,11.015,0.23,12.861,0.159,13.036      c-0.072,0.19-0.246,0.327-0.449,0.35h-0.06c-0.187,0.002-0.362-0.09-0.464-0.246c-0.433-0.649-0.737-4.439-0.293-13.124      c-0.051-9.785,2.706-17.9,7.627-22.61c0.03-0.036,0.07-0.071,0.099-0.106c0.281-0.265,0.571-0.514,0.871-0.757      c0.1-0.078,0.18-0.169,0.29-0.245c2.454-1.675,5.38-2.518,8.35-2.408c2.64-0.027,7.4,0.165,11.59,0.33      c3.279,0.128,6.379,0.25,7.93,0.25c1.57,0,4.02,0.183,6.849,0.4c3.531,0.265,7.531,0.566,10.721,0.566      c2.919,0,9.04-0.857,14.439-1.612c5.35-0.75,9.98-1.391,11.37-1.232c1.18,0.139,3.55,0.624,6.06,1.137      c2.762,0.641,5.556,1.13,8.37,1.466c2.21,0.04,7.59-0.463,9.46-0.659c0.45-0.047,0.92-0.057,1.41-0.067      c1.457,0.014,2.908-0.181,4.311-0.578c0.8-0.227,1.369-0.41,1.96-0.6l0.12-0.04c-0.148-1.364-0.026-2.744,0.359-4.061      c0.521-0.675,1.423-0.928,2.22-0.626c1.296,0.923,2.453,2.023,3.44,3.27c0.168,0.271,0.287,0.571,0.35,0.884      c0.951,0.399,1.86,0.887,2.721,1.458c0.029,0.015,2.439,1.587,2.569,2.961c0.236,0.809,0.636,1.561,1.17,2.212l0.391,0.58      c0.79,1.192,1.93,2.8,2.59,3.572c0.954,1.449,1.815,2.957,2.58,4.514c0.47,0.88,0.88,1.641,1.089,2      c0.188,0.255,0.423,0.472,0.69,0.64c1.259,0.664,1.769,2.201,1.16,3.486c-0.979,2.787-5.851,3.784-6.87,3.7      c-0.376-0.035-0.726-0.208-0.98-0.488c-0.172-0.19-0.405-0.316-0.659-0.354c-0.33-0.067-1.16-0.155-2.13-0.257      c-1.738-0.147-3.468-0.389-5.181-0.725C116.76,28.145,115.002,27.544,113.295,26.819"
   id="path4396" />
			</g>
		</g>
		<path
   clip-path="url(#SVGID_4_)"
   d="m 113.295,26.819 -0.01,0 -0.09,-0.043 c -0.03,0.012 -0.061,0.027 -0.101,0.044 -0.37,0.167 -0.751,0.312 -1.14,0.434 -1.3,0.413 -4.78,3.876 -7.05,8.155 -2.71,5.108 -8.45,10.466 -15.391,14.377 -0.029,0.399 -0.069,0.785 -0.109,1.146 0.028,1.704 0.385,3.386 1.05,4.954 0.413,1.113 0.736,2.257 0.97,3.42 0.19,1.767 0.123,3.553 -0.2,5.301 -0.115,0.679 -0.176,1.367 -0.18,2.057 0.255,3.399 1.393,6.674 3.3,9.5 0.731,0.891 1.178,1.981 1.28,3.13 0.001,0.303 -0.243,0.549 -0.546,0.55 l -0.004,0 -8.311,0 c -0.153,0.002 -0.3,-0.064 -0.399,-0.18 -0.107,-0.108 -0.162,-0.259 -0.15,-0.41 0.01,-0.05 0.35,-4.46 -1.75,-13.8 -0.262,-0.821 -0.668,-1.59 -1.2,-2.268 -0.317,-0.387 -0.564,-0.826 -0.729,-1.3 -0.1,-0.31 -0.2,-0.6 -0.29,-0.876 -0.471,1.29 -1.011,2.553 -1.62,3.782 -0.351,0.669 -0.65,1.361 -0.9,2.074 -1.46,5.822 -0.27,8.182 0.61,9.892 0.476,0.768 0.757,1.64 0.82,2.54 -0.001,0.305 -0.248,0.551 -0.552,0.55 l -0.009,0 -8.3,0 c -0.158,-0.002 -0.31,-0.067 -0.42,-0.18 -0.102,-0.119 -0.147,-0.274 -0.13,-0.431 0.01,-0.049 0.569,-4.529 1.909,-13.983 0.037,-0.754 -0.135,-1.503 -0.5,-2.164 -0.246,-0.425 -0.377,-0.908 -0.381,-1.399 0.262,-5.257 -0.318,-7.264 -1.738,-11.67 -8.27,0.915 -20.87,0.528 -25.97,-1.094 -4.95,-1.578 -10.26,-3.106 -13.18,-3.883 -0.315,2.525 -0.877,5.016 -1.68,7.432 -0.442,1.134 -0.715,2.328 -0.81,3.541 0.035,1.332 -0.113,2.661 -0.44,3.952 -0.172,0.724 -0.289,1.459 -0.35,2.2 -0.086,2.629 0.296,5.252 1.13,7.746 0.581,1.661 1.385,3.235 2.39,4.68 1.07,1.7 2.01,3.17 2.01,4.71 -10e-4,0.305 -0.248,0.551 -0.552,0.551 -0.003,0 -0.006,0 -0.008,-10e-4 l -9.09,0 c -0.303,0.002 -0.549,-0.244 -0.55,-0.546 l 0,-0.004 c 0,-0.63 0.02,-1.159 0.04,-1.64 0.124,-1.51 -0.063,-3.027 -0.55,-4.46 -0.41,-1.341 -0.92,-3.46 -1.51,-5.919 -0.92,-3.844 -1.97,-8.2 -2.95,-10.872 -0.31,-0.771 -0.742,-1.485 -1.28,-2.118 -0.199,-0.241 -0.382,-0.494 -0.55,-0.758 -0.01,0.02 -0.03,0.042 -0.04,0.063 -0.645,0.858 -1.17,1.8 -1.56,2.8 -0.498,1.422 -1.138,2.792 -1.91,4.086 -0.46,0.851 -0.9,1.652 -1.14,2.241 -0.899,2.369 -1.39,4.874 -1.45,7.407 -0.01,1.888 0.455,3.748 1.35,5.41 0.623,1.164 1.001,2.443 1.11,3.76 -10e-4,0.305 -0.248,0.551 -0.552,0.55 l -0.008,0 -9.09,0 C 3.541,79.857 3.295,79.611 3.294,79.309 l 0,-0.004 c 0,-1.01 0.26,-3.42 0.59,-6.47 0.54,-4.941 1.27,-11.711 1.27,-16.219 -0.037,-0.78 -0.209,-1.549 -0.51,-2.27 -0.33,-0.936 -0.68,-1.9 0.06,-2.637 0.75,-0.75 3.55,-6.783 3.55,-8.734 0,-1.187 -0.8,-5.827 -1.5,-9.921 C 6.224,29.945 5.724,27.009 5.494,25.272 4.1892033,13.312259 8.7138883,10.227196 8.943,9.896 9.224,9.631 9.514,9.382 9.814,9.139 c 0.1,-0.078 0.18,-0.169 0.29,-0.245 2.454,-1.675 5.38,-2.518 8.35,-2.408 2.64,-0.027 7.4,0.165 11.59,0.33 3.279,0.128 6.379,0.25 7.93,0.25 1.57,0 4.02,0.183 6.849,0.4 3.531,0.265 7.531,0.566 10.721,0.566 2.919,0 9.04,-0.857 14.439,-1.612 5.35,-0.75 9.98,-1.391 11.37,-1.232 1.18,0.139 3.55,0.624 6.06,1.137 2.762,0.641 5.556,1.13 8.37,1.466 2.21,0.04 7.59,-0.463 9.46,-0.659 0.45,-0.047 0.92,-0.057 1.41,-0.067 1.457,0.014 2.908,-0.181 4.311,-0.578 0.8,-0.227 1.369,-0.41 1.96,-0.6 l 0.12,-0.04 c -0.148,-1.364 -0.026,-2.744 0.359,-4.061 0.521,-0.675 1.423,-0.928 2.22,-0.626 1.296,0.923 2.453,2.023 3.44,3.27 0.168,0.271 0.287,0.571 0.35,0.884 0.951,0.399 1.86,0.887 2.721,1.458 0.029,0.015 2.439,1.587 2.569,2.961 0.236,0.809 0.636,1.561 1.17,2.212 l 0.391,0.58 c 0.79,1.192 1.93,2.8 2.59,3.572 0.954,1.449 1.815,2.957 2.58,4.514 0.47,0.88 0.88,1.641 1.089,2 0.188,0.255 0.423,0.472 0.69,0.64 1.259,0.664 1.769,2.201 1.16,3.486 -0.979,2.787 -5.851,3.784 -6.87,3.7 -0.376,-0.035 -0.726,-0.208 -0.98,-0.488 -0.172,-0.19 -0.405,-0.316 -0.659,-0.354 -0.33,-0.067 -1.16,-0.155 -2.13,-0.257 -1.738,-0.147 -3.468,-0.389 -5.181,-0.725 -1.793,-0.468 -3.551,-1.069 -5.258,-1.794 z"
   id="path4398"
   inkscape:connector-curvature="0"
   style="fill:none;stroke:#4c4c4c;stroke-linejoin:round"
   sodipodi:nodetypes="cccccccccccccccccccccccccccccccccccccccccccccscccscccccccccccccccccsccccscccccccscscccccccccccccccccccccccccccc" />
	</g>
</g>
<path
   style="fill:none;fill-rule:evenodd;stroke:#4c4c4c;stroke-width:1px;stroke-linecap:butt;stroke-linejoin:miter;stroke-opacity:1"
   d="m 6.5671332,13.279614 c -1.0232782,1.7578 -1.9027849,3.599267 -2.6268533,5.499974 -0.5398032,1.417003 -0.993709,2.868475 -1.3134266,4.350726 -0.3265661,1.514001 -0.5121837,3.054931 -0.6567133,4.596993 -0.1049774,1.120059 -0.1885159,2.242172 -0.2462675,3.365656 -0.084312,1.640187 -0.1136439,3.283301 -0.082089,4.92535 0.028964,1.507251 0.1092365,3.013616 0.2462677,4.514904 0.1505986,1.64993 0.3697547,3.293601 0.6567133,4.92535"
   id="path4410"
   inkscape:path-effect="#path-effect4412"
   inkscape:original-d="m 6.5671332,13.279614 c 0,0 -1.8933315,3.605315 -2.6268533,5.499974 -0.5469332,1.412708 -0.9864686,2.871545 -1.3134266,4.350726 -0.334081,1.511406 -0.4906836,3.058035 -0.6567133,4.596993 -0.1206574,1.118395 -0.1958302,2.241903 -0.2462675,3.365656 -0.073624,1.64036 -0.1131428,3.283632 -0.082089,4.92535 0.028504,1.506936 0.1055169,3.014285 0.2462677,4.514904 0.1546751,1.649075 0.6567133,4.92535 0.6567133,4.92535"
   inkscape:connector-curvature="0"
   sodipodi:nodetypes="caaaaaac" /><path
   style="fill:#4c4c4c;fill-opacity:1;stroke:#4c4c4c;stroke-width:0.80333179;stroke-opacity:1"
   id="path4417"
   sodipodi:type="arc"
   sodipodi:cx="2.5473447"
   sodipodi:cy="45.307957"
   sodipodi:rx="0.093354553"
   sodipodi:ry="0.35662329"
   sodipodi:start="0"
   sodipodi:end="2.6814207"
   d="m 2.6406992,45.307957 a 0.09335455,0.35662329 0 0 1 -0.072064,0.347225 0.09335455,0.35662329 0 0 1 -0.104934,-0.188848"
   sodipodi:open="true" /></svg>