<?xml version="1.0" encoding="UTF-8"?>
<!-- Generator: visioncortex VTracer 0.6.4 -->
<svg version="1.1" xmlns="http://www.w3.org/2000/svg" width="512" height="512">
<path d="M0 0 C-0.08715017 1.93833996 -0.19532964 3.8757429 -0.3125 5.8125 C-0.37050781 6.89144531 -0.42851562 7.97039062 -0.48828125 9.08203125 C-1.0680468 12.3880226 -1.5380465 12.88503324 -4 15 C-5.45858772 16.00900313 -6.94466382 16.97888413 -8.44921875 17.91796875 C-9.29677734 18.44970703 -10.14433594 18.98144531 -11.01757812 19.52929688 C-11.89865234 20.07650391 -12.77972656 20.62371094 -13.6875 21.1875 C-14.58017578 21.74630859 -15.47285156 22.30511719 -16.39257812 22.88085938 C-18.59284432 24.25749651 -20.79535729 25.63038674 -23 27 C-22.46991705 31.07057108 -20.43461942 32.89978999 -17.5546875 35.703125 C-16.18570313 37.05083984 -16.18570313 37.05083984 -14.7890625 38.42578125 C-13.8181476 39.36764053 -12.84679068 40.30904436 -11.875 41.25 C-6.27762866 46.7166635 -0.75938462 52.14549475 4.32373047 58.09667969 C7.37812417 61.56479115 10.70224021 64.76541569 14 68 C31.64464442 85.30662441 31.64464442 85.30662441 32.20703125 92.734375 C31.96647121 96.52886919 31.03227551 99.54853276 29.75 103.125 C29.33234375 104.32382813 28.9146875 105.52265625 28.484375 106.7578125 C26.90996144 110.19666318 25.99400487 111.72539951 23 114 C20.07158431 114.75746415 17.13573347 114.95118809 14.125 115.16796875 C12.326664 115.33365193 10.52849152 115.50111756 8.73046875 115.67016602 C7.79380371 115.75324005 6.85713867 115.83631409 5.89208984 115.92190552 C-9.40675411 117.32687174 -22.98485774 118.88341384 -36.49121094 126.62890625 C-41.88318521 129.57570729 -47.53859794 132.01075669 -53.125 134.5625 C-54.27226562 135.0994751 -55.41953125 135.6364502 -56.6015625 136.18969727 C-57.66375 136.68526123 -58.7259375 137.1808252 -59.8203125 137.69140625 C-60.77180176 138.13685791 -61.72329102 138.58230957 -62.70361328 139.04125977 C-65 140 -65 140 -67 140 C-67.42079834 141.09066772 -67.42079834 141.09066772 -67.85009766 142.20336914 C-68.91872692 144.80233905 -70.0995619 147.25578539 -71.3984375 149.74609375 C-71.8713623 150.65399658 -72.34428711 151.56189941 -72.83154297 152.49731445 C-73.34088379 153.46757568 -73.85022461 154.43783691 -74.375 155.4375 C-74.90883301 156.45739014 -75.44266602 157.47728027 -75.99267578 158.52807617 C-80.03707027 166.2280952 -84.13635888 173.89779296 -88.37011719 181.49560547 C-91.14857264 186.50021583 -93.76535626 191.5379496 -96.234375 196.703125 C-103.56268284 211.71810358 -110.54423806 220.6170276 -125 229 C-131.15663612 232.53026539 -131.15663612 232.53026539 -134.70239258 238.33227539 C-134.82767334 239.24485107 -134.9529541 240.15742676 -135.08203125 241.09765625 C-135.2330127 242.16395264 -135.38399414 243.23024902 -135.53955078 244.32885742 C-135.69149902 245.54033447 -135.84344727 246.75181152 -136 248 C-136.18081637 249.38712701 -136.36164367 250.7742526 -136.54248047 252.16137695 C-137.02680495 255.94771104 -137.47740726 259.73727719 -137.91479492 263.52929688 C-138.18958919 265.89297038 -138.47656775 268.25498157 -138.76367188 270.6171875 C-138.94085194 272.1379339 -139.11731044 273.65876458 -139.29296875 275.1796875 C-139.37935104 275.87665741 -139.46573334 276.57362732 -139.55473328 277.29171753 C-140.38573067 284.75053939 -138.89849804 289.80630707 -135.4296875 296.34765625 C-135.0703714 297.04080429 -134.7110553 297.73395233 -134.34085083 298.44810486 C-133.19328522 300.6570253 -132.03428569 302.85971216 -130.875 305.0625 C-130.11905151 306.51458888 -129.36383675 307.96705998 -128.609375 309.41992188 C-126.77108523 312.95366564 -124.91649628 316.47850233 -123.05435181 319.99972534 C-122.03633115 321.93107397 -121.02845387 323.86742407 -120.0222168 325.80493164 C-119.41804932 326.95469482 -118.81388184 328.10445801 -118.19140625 329.2890625 C-117.66748291 330.29275879 -117.14355957 331.29645508 -116.60375977 332.33056641 C-114.29811711 336.16827333 -111.42071935 339.14073611 -108 342 C-109.485 345.465 -109.485 345.465 -111 349 C-115.37464796 349.14564235 -119.7486696 349.23419143 -124.125 349.3125 C-125.3625 349.35439453 -126.6 349.39628906 -127.875 349.43945312 C-129.07382812 349.45556641 -130.27265625 349.47167969 -131.5078125 349.48828125 C-133.15740967 349.52755737 -133.15740967 349.52755737 -134.84033203 349.56762695 C-139.1095891 348.80066492 -141.50453569 347.47875516 -144 344 C-146.10992228 339.30535547 -147.60245128 334.44989598 -149.109375 329.5390625 C-149.5651222 328.10511701 -150.02261006 326.67172369 -150.48175049 325.23886108 C-151.68233159 321.47572309 -152.85869434 317.70543667 -154.0302124 313.9331665 C-155.22258759 310.10953785 -156.43870275 306.29348245 -157.65234375 302.4765625 C-159.42707893 296.88216539 -161.19346839 291.28526616 -162.94042969 285.68212891 C-163.29095398 284.55803619 -163.64147827 283.43394348 -164.00262451 282.27578735 C-164.71889305 279.92326972 -165.38597203 277.55556457 -166.02081299 275.17977905 C-166.70247455 272.00107639 -166.70247455 272.00107639 -168.7265625 270.44140625 C-169.35304688 270.15136719 -169.97953125 269.86132812 -170.625 269.5625 C-171.73875 269.046875 -172.8525 268.53125 -174 268 C-174.10683037 278.2794554 -174.03221955 288.5395007 -173.625 298.8125 C-173.59414307 299.73627441 -173.56328613 300.66004883 -173.53149414 301.61181641 C-173.12902567 310.72048952 -170.47532087 316.18184904 -165.125 323.4375 C-161.43111021 328.4930061 -158.00053699 333.49901551 -155 339 C-156.07104492 340.95361328 -156.07104492 340.95361328 -158 343 C-162.34460841 343.86130378 -166.72274819 343.82800578 -171.14135742 343.85107422 C-173.29876254 343.87484861 -175.44463265 343.97304613 -177.59960938 344.07421875 C-187.2774247 344.31616766 -187.2774247 344.31616766 -191.21240234 341.30957031 C-194.55205255 336.44608219 -195.54331768 330.90831323 -196.49829102 325.17919922 C-196.62530773 324.43744949 -196.75232445 323.69569977 -196.88319016 322.93147278 C-198.08762139 315.75352172 -199.04817352 308.54936993 -199.95519257 301.32876587 C-200.446223 297.45274799 -200.96356562 293.58019186 -201.4765625 289.70703125 C-202.12136443 284.83307434 -202.75812797 279.95852355 -203.36425781 275.07958984 C-203.86163295 271.08181116 -204.38698826 267.08857161 -204.9308548 263.09686279 C-205.13068987 261.5928581 -205.32054975 260.08748892 -205.49962616 258.58087158 C-206.46787082 250.47886208 -207.57384388 244.03449039 -213.29742432 237.85839844 C-215.13149786 235.85646722 -216.35297447 233.7587464 -217.75 231.4375 C-219.48476052 229.1522873 -220.27481838 228.13121699 -223.12542725 227.61541748 C-224.36996674 227.65641571 -224.36996674 227.65641571 -225.63964844 227.69824219 C-226.62122925 227.7298645 -227.60281006 227.76148682 -228.61413574 227.79406738 C-235.42700018 228.20843456 -242.21928623 228.76764722 -249.015625 229.390625 C-249.81320976 229.46286034 -250.61079453 229.53509567 -251.43254852 229.60951996 C-255.64274255 229.99103892 -259.85234215 230.37846701 -264.06152344 230.77099609 C-268.38969727 231.17347219 -272.71941334 231.55570331 -277.0498085 231.93341446 C-280.40184919 232.22945478 -283.75239646 232.54033249 -287.10271454 232.85521698 C-288.69850613 233.00263842 -290.29481621 233.14456111 -291.89160919 233.28070831 C-294.12515392 233.47255712 -296.3557788 233.68543601 -298.58691406 233.90332031 C-299.85279358 234.01879211 -301.1186731 234.13426392 -302.4229126 234.25323486 C-308.85792547 235.59663041 -313.52918663 239.21961866 -318.5 243.4375 C-323.60437138 247.75369639 -323.60437138 247.75369639 -325.75292969 249.09130859 C-331.02313433 252.40316271 -332.94812273 256.0624449 -335.25 261.75 C-335.89162687 263.29041372 -336.5422559 264.82711801 -337.203125 266.359375 C-337.61546387 267.37209473 -337.61546387 267.37209473 -338.03613281 268.40527344 C-339 270 -339 270 -342 271 C-344.64 266.38 -347.28 261.76 -350 257 C-352.72558157 260.40697697 -354.74657784 263.08390876 -356.75 266.8125 C-357.17796875 267.60269531 -357.6059375 268.39289063 -358.046875 269.20703125 C-358.36140625 269.79871094 -358.6759375 270.39039063 -359 271 C-362 270 -362 270 -363.60546875 266.91015625 C-364.1440167 265.63226839 -364.67094094 264.34943357 -365.1875 263.0625 C-365.46013672 262.41603516 -365.73277344 261.76957031 -366.01367188 261.10351562 C-368 256.30944549 -368 256.30944549 -368 254 C-371.63 254 -375.26 254 -379 254 C-379.4640625 255.3921875 -379.4640625 255.3921875 -379.9375 256.8125 C-380.625 258.875 -381.3125 260.9375 -382 263 C-381.48107446 265.52516691 -381.48107446 265.52516691 -380.5246582 268.32592773 C-380.1771199 269.41393173 -379.8295816 270.50193573 -379.47151184 271.62290955 C-379.08517075 272.79793533 -378.69882965 273.97296112 -378.30078125 275.18359375 C-377.90932419 276.39064468 -377.51786713 277.59769562 -377.11454773 278.84132385 C-376.28243479 281.39752484 -375.44661686 283.95216151 -374.60473633 286.50512695 C-373.52892605 289.77000463 -372.47232231 293.04072971 -371.42106342 296.31358242 C-370.41318439 299.44064569 -369.38727381 302.56177694 -368.36328125 305.68359375 C-367.98706131 306.85659531 -367.61084137 308.02959686 -367.22322083 309.23814392 C-366.85992172 310.32930008 -366.49662262 311.42045624 -366.12231445 312.54467773 C-365.80841263 313.50381577 -365.4945108 314.4629538 -365.1710968 315.45115662 C-362.92896065 320.33107252 -359.12277008 322.72003715 -354.61328125 325.3828125 C-353.59298828 325.99253906 -352.57269531 326.60226562 -351.52148438 327.23046875 C-349.93303711 328.16826172 -349.93303711 328.16826172 -348.3125 329.125 C-346.20166632 330.37294622 -344.09344309 331.62532204 -341.98828125 332.8828125 C-341.05540283 333.43340332 -340.12252441 333.98399414 -339.16137695 334.55126953 C-337 336 -337 336 -336 338 C-337.52392578 340.46069336 -337.52392578 340.46069336 -340 343 C-342.749292 343.49859126 -344.87349676 343.68055962 -347.6171875 343.62890625 C-348.3519632 343.63131821 -349.08673889 343.63373016 -349.84378052 343.63621521 C-351.39542037 343.6352376 -352.94709545 343.621864 -354.49853516 343.59692383 C-356.86092142 343.56270393 -359.21954509 343.57624156 -361.58203125 343.59570312 C-363.09376579 343.58880128 -364.60549072 343.57912582 -366.1171875 343.56640625 C-366.81738007 343.57136612 -367.51757263 343.57632599 -368.23898315 343.58143616 C-373.31954357 343.46087204 -376.14253193 342.26436551 -380 339 C-391.96991337 326.12929286 -396.76856347 309.01287761 -401.92034912 292.64978027 C-402.78129175 289.93512286 -403.66618841 287.22856328 -404.55232334 284.52204323 C-408.39966302 272.76781522 -412.15262491 261.04510366 -415 249 C-416.98 249 -418.96 249 -421 249 C-421.08056641 249.55042969 -421.16113281 250.10085938 -421.24414062 250.66796875 C-422.31039743 257.18678998 -423.88534612 263.50262424 -425.59375 269.875 C-426.31631582 272.63924302 -427.0351335 275.40443672 -427.75292969 278.16992188 C-428.25192213 280.06022264 -428.76436875 281.94702179 -429.29003906 283.83007812 C-433.22020518 296.10322007 -433.22020518 296.10322007 -430.6875 308.15234375 C-429.49931447 309.79859753 -428.26956296 311.41565589 -427 313 C-425.90735773 314.76004175 -424.83441148 316.53245978 -423.78125 318.31640625 C-422.6905431 320.06700384 -421.59679223 321.81570858 -420.5 323.5625 C-418.32746084 327.03804661 -416.15945815 330.5163089 -414 334 C-413.42507813 334.9266748 -412.85015625 335.85334961 -412.2578125 336.80810547 C-411.70867187 337.7054541 -411.15953125 338.60280273 -410.59375 339.52734375 C-410.09552734 340.3380835 -409.59730469 341.14882324 -409.08398438 341.98413086 C-408 344 -408 344 -408 346 C-415.40099088 349.04985888 -422.13645053 349.55883101 -430.11181641 349.5559082 C-432.12982129 349.56251579 -434.14300836 349.61726571 -436.16015625 349.67382812 C-437.45050781 349.67962891 -438.74085938 349.68542969 -440.0703125 349.69140625 C-441.23320801 349.70373291 -442.39610352 349.71605957 -443.59423828 349.72875977 C-448.37818039 348.70509903 -451.27399195 347.13834801 -454 343 C-455.24190512 338.43320358 -455.46480127 333.89289014 -455.70703125 329.1796875 C-455.80147514 327.79782595 -455.89884173 326.41616144 -455.99894714 325.03469849 C-456.25545972 321.3874187 -456.4728918 317.7388323 -456.68188477 314.08856201 C-456.89469751 310.48198271 -457.14276595 306.87788521 -457.38867188 303.2734375 C-457.77227845 297.59716252 -458.13294286 291.91988952 -458.47900391 286.24121094 C-458.88124697 279.66690164 -459.35934329 273.10039883 -459.86419678 266.53308105 C-461.25501992 248.22280877 -461.19997867 231.70763327 -457.9375 213.625 C-455.11553079 198.87562518 -455.11553079 198.87562518 -456 184 C-456.11699249 183.35542847 -456.23398499 182.71085693 -456.35452271 182.04675293 C-457.34749828 176.61927264 -458.44692666 171.21586974 -459.5625 165.8125 C-459.89572359 164.17654245 -460.22840999 162.54047539 -460.56054688 160.90429688 C-461.36751497 156.93490914 -462.18172189 152.96707095 -463 149 C-462.84660156 150.29429932 -462.69320313 151.58859863 -462.53515625 152.92211914 C-462.39811279 154.0805986 -462.39811279 154.0805986 -462.25830078 155.26248169 C-462.06926608 156.85424589 -461.87728222 158.44566061 -461.68359375 160.03686523 C-460.58304427 169.63719422 -461.07377985 178.08974889 -463.0625 187.5625 C-463.24232422 188.55185547 -463.42214844 189.54121094 -463.60742188 190.56054688 C-465.02609729 197.34767021 -467.35180004 202.68331783 -473 207 C-476.4375 207 -476.4375 207 -479 206 C-480.46588044 199.6796758 -480.23497544 193.3323998 -480.25 186.875 C-480.25167175 186.19651001 -480.25334351 185.51802002 -480.25506592 184.81896973 C-480.25632886 176.24457605 -479.85400383 168.01200002 -478.19921875 159.58056641 C-477.02670116 153.24870251 -476.6954156 146.9704397 -476.43188477 140.54541016 C-473.93744281 79.81865072 -473.93744281 79.81865072 -458.55859375 65.6484375 C-453.16206027 61.3918898 -447.4260651 58.41788813 -441 56 C-440.25301849 55.64754211 -439.50603699 55.29508423 -438.73641968 54.9319458 C-435.36732735 53.7845299 -432.6812184 53.82532169 -429.12353516 53.92480469 C-428.4453539 53.94084684 -427.76717264 53.956889 -427.06844044 53.97341728 C-424.80825724 54.02945438 -422.54881434 54.10065608 -420.2890625 54.171875 C-418.67385735 54.21505459 -417.05862698 54.25729936 -415.44337463 54.29867554 C-411.07887109 54.41310685 -406.71483611 54.54062359 -402.35076523 54.67038727 C-397.78654938 54.80369651 -393.22199947 54.92435503 -388.6574707 55.04638672 C-378.34519761 55.32453857 -368.03346564 55.620088 -357.72182465 55.92066956 C-354.21299681 56.02293804 -350.70415466 56.12471063 -347.1953125 56.22648621 C-344.69427234 56.29905564 -342.19323594 56.37175347 -339.69219971 56.44445801 C-336.46333086 56.53825665 -333.23444895 56.63158471 -330.0055542 56.7244873 C-328.43322732 56.76976768 -326.86090065 56.81505568 -325.28857422 56.86035156 C-324.14076729 56.89338127 -324.14076729 56.89338127 -322.96977234 56.92707825 C-318.5496246 57.05483703 -314.12966183 57.18750568 -309.70979786 57.32472038 C-307.6103606 57.38939246 -305.51087582 57.45218975 -303.41136169 57.51431274 C-300.91700988 57.58833002 -298.42273776 57.66514851 -295.92860413 57.7461853 C-292.75439807 57.83818808 -289.5808278 57.90541755 -286.40571022 57.95595741 C-284.66854087 57.98776067 -282.93152521 58.0283806 -281.19467735 58.07451439 C-261.00379461 58.58184135 -241.38489873 56.84651968 -221.35496783 54.600137 C-217.01213111 54.11623469 -212.66746542 53.64929559 -208.32301331 53.18016052 C-201.06343491 52.39391605 -193.80511973 51.59683162 -186.54760742 50.79174805 C-176.3063829 49.65571592 -166.06287838 48.54135168 -155.81891334 47.43034661 C-148.69521791 46.65689759 -141.5721037 45.87811831 -134.44908261 45.09848666 C-132.72837279 44.91020868 -131.00764338 44.72210972 -129.28689456 44.53418851 C-124.40365748 44.00079417 -119.52080464 43.46412668 -114.63853645 42.92193222 C-113.16118369 42.75834295 -111.68370669 42.59587134 -110.20610046 42.43458748 C-108.19393754 42.21471678 -106.18227255 41.99030313 -104.17063904 41.76564026 C-103.04462501 41.64119821 -101.91861097 41.51675615 -100.7584753 41.38854313 C-97.91856409 41.07330845 -97.91856409 41.07330845 -95 40 C-93.9270306 36.828875 -93.9270306 36.828875 -94 33 C-95.75832043 30.34929605 -98.08436335 28.37075421 -100.4375 26.25 C-106.69791528 20.16751663 -106.69791528 20.16751663 -107.8671875 15.6484375 C-107.81886569 12.97693146 -107.49587399 10.61400726 -107 8 C-98.74135377 6.13720346 -98.74135377 6.13720346 -94.89599609 8.04248047 C-93.54676917 9.07157479 -92.21229261 10.12018746 -90.89013672 11.18383789 C-77.92607393 21.50537003 -62.20808801 21.45805897 -46.36334229 20.05108643 C-35.92072061 18.78269091 -29.18866036 13.28130342 -22 6 C-14.47094062 -0.47849295 -9.89638363 -2.02348738 0 0 Z M-465 139 C-465 140.65 -465 142.3 -465 144 C-464.67 144 -464.34 144 -464 144 C-464 142.35 -464 140.7 -464 139 C-464.33 139 -464.66 139 -465 139 Z " fill="#E03B30" transform="translate(480,82)"/>
</svg>
