<?xml version="1.0" encoding="UTF-8"?>
<!-- Generator: visioncortex VTracer 0.6.4 -->
<svg version="1.1" xmlns="http://www.w3.org/2000/svg" width="512" height="512">
<path d="M0 0 C10.28667994 -0.39063342 17.3946365 0.96706435 25.97265625 6.69140625 C28.07038948 8.04543444 30.21836364 9.1702409 32.4375 10.3125 C46.68504711 18.24135755 55.32408224 32.67694383 63.9777832 45.99560547 C64.69840942 47.0999292 64.69840942 47.0999292 65.43359375 48.2265625 C65.85697021 48.88221191 66.28034668 49.53786133 66.71655273 50.21337891 C68.00481759 52.00670631 69.39656031 53.48685789 71 55 C69.7934375 54.89300781 68.586875 54.78601563 67.34375 54.67578125 C65.72923694 54.5537541 64.11464915 54.43271291 62.5 54.3125 C61.70851563 54.23966797 60.91703125 54.16683594 60.1015625 54.09179688 C53.60970915 53.63949562 48.36347648 54.4493086 43.01171875 58.5078125 C37.00199726 65.8471184 35.65452004 71.8140669 36.5625 81.25 C36.65474854 81.93570068 36.74699707 82.62140137 36.84204102 83.32788086 C37.2581165 87.03724584 37.17631652 88.72117387 35.15234375 91.921875 C32.25798301 94.7164302 30.67123882 95.16997472 26.75 95.25 C26.00234375 95.27578125 25.2546875 95.3015625 24.484375 95.328125 C21.24518607 94.90030759 18.84392808 93.56169461 16 92 C20.538586 115.65404235 27.99931141 137.31477089 37.79492188 159.27441406 C55.88537407 200.19050164 63.59058014 243.66055588 47.02539062 286.53564453 C42.44744938 297.53796332 36.04871191 307.22313322 28 316 C27.12988281 316.96292969 26.25976562 317.92585938 25.36328125 318.91796875 C-2.29658566 348.54014234 -43.54209183 361.70485821 -82 370 C-82.66 370 -83.32 370 -84 370 C-81.66773153 385.83287942 -78.54575479 401.73311472 -65.90625 412.83984375 C-57.32225951 418.95127176 -47.68166925 422.29420632 -37.30078125 423.640625 C-35 424 -35 424 -34 425 C-33.95919217 426.99958364 -33.95745644 429.00045254 -34 431 C-44.40806856 433.08161371 -53.04392261 431.31869246 -63 428 C-61.02 431.465 -61.02 431.465 -59 435 C-69.43336355 436.23350111 -69.43336355 436.23350111 -73.0390625 433.39453125 C-74.15467161 431.98547994 -75.24671116 430.55749789 -76.31640625 429.11328125 C-79.9465718 424.55662333 -84.37686581 422.34229104 -90.11328125 421.59375 C-97.29280397 421.39127227 -103.26279474 422.58667274 -110 425 C-110 421.37 -110 417.74 -110 414 C-108.15074934 413.31981585 -106.29529214 412.65649587 -104.4375 412 C-103.40496094 411.62875 -102.37242187 411.2575 -101.30859375 410.875 C-97.74369436 409.93221669 -94.67115539 409.85185754 -91 410 C-91.39832031 409.21238281 -91.79664063 408.42476563 -92.20703125 407.61328125 C-97.25058973 397.24392136 -100.22584374 387.60585899 -100 376 C-100.56807373 376.12117188 -101.13614746 376.24234375 -101.72143555 376.3671875 C-112.62120866 378.65886122 -122.82745489 380.58379479 -134 380 C-129.62275006 408.39378035 -129.62275006 408.39378035 -116 433 C-113.08204718 434.81386256 -110.367978 435.44657639 -107 436 C-106.10410156 436.18691406 -105.20820313 436.37382812 -104.28515625 436.56640625 C-97.20410046 437.92558877 -90.14321809 438.3971452 -82.95703125 438.75390625 C-80 439 -80 439 -79 440 C-78.92794489 441.68608966 -78.91613932 443.37500659 -78.9375 445.0625 C-78.94652344 445.98160156 -78.95554687 446.90070313 -78.96484375 447.84765625 C-78.98224609 448.91306641 -78.98224609 448.91306641 -79 450 C-89.3764933 450.21667851 -99.03844377 450.32051874 -109 447 C-109.49629779 451.59583114 -109.49629779 451.59583114 -107.88671875 455.80078125 C-106.65378147 457.25599455 -105.33191067 458.63479157 -104 460 C-114.9287395 461.1994958 -114.9287395 461.1994958 -119.46875 458.5703125 C-124.38199456 453.86493598 -127.35426328 448.20730538 -130 442 C-137.2484945 441.58359712 -143.16914355 442.55833216 -150 445 C-151.20773612 434.78456531 -151.20773612 434.78456531 -148.4296875 430.6796875 C-144.36030972 426.98165978 -141.43945283 425.80917095 -136 425 C-136.33209473 424.33693848 -136.66418945 423.67387695 -137.00634766 422.99072266 C-148.17036456 400.57362454 -148.17036456 400.57362454 -151.6875 389.875 C-151.91840332 389.1732666 -152.14930664 388.4715332 -152.38720703 387.74853516 C-153.70859964 383.50334185 -154.48032904 379.39721584 -155 375 C-155.60803467 374.96189209 -156.21606934 374.92378418 -156.8425293 374.88452148 C-163.17906817 374.3840924 -168.81074145 373.12267565 -174.8125 371.0625 C-175.70759277 370.75820068 -176.60268555 370.45390137 -177.52490234 370.14038086 C-191.94612318 365.07044006 -206.19573211 358.85781946 -218 349 C-218.68578125 348.48566406 -219.3715625 347.97132813 -220.078125 347.44140625 C-239.92904749 331.771682 -252.07777526 300.04241203 -255.29223633 275.7956543 C-255.89967852 270.51127035 -256.03040577 265.37543364 -255.88256836 260.06201172 C-255.41019976 241.52607052 -261.09890084 227.49698486 -269 211 C-269.33547852 210.28666504 -269.67095703 209.57333008 -270.01660156 208.83837891 C-273.82203998 200.76101648 -278.04644099 192.97859965 -282.625 185.3125 C-283.06827637 184.55759277 -283.51155273 183.80268555 -283.96826172 183.02490234 C-286.79609726 178.39686983 -289.41592236 174.97158802 -294 172 C-297.51076124 171.33685438 -297.51076124 171.33685438 -301.125 171.4375 C-307.41000827 171.43074193 -307.41000827 171.43074193 -310.40234375 169.24609375 C-312.99357571 165.60316374 -312.64868529 162.30220014 -312 158 C-310.5 154.5625 -310.5 154.5625 -309 152 C-309 151.34 -309 150.68 -309 150 C-309.61875 149.401875 -310.2375 148.80375 -310.875 148.1875 C-313.96234439 145.00935136 -314.8303493 142.35720559 -315.375 138 C-314.9055843 134.24467439 -313.60654478 132.68320786 -311 130 C-310.34 129.67 -309.68 129.34 -309 129 C-309.66 128.01 -310.32 127.02 -311 126 C-311.75464979 120.8683814 -311.91099421 116.45759074 -309.125 112 C-304.97299426 109.34271633 -300.76716624 108.13856592 -296 107 C-296.61875 106.4225 -297.2375 105.845 -297.875 105.25 C-301.57715963 101.33006627 -302.45796083 98.48303879 -302.32421875 92.96875 C-301.80595067 89.82167637 -300.27224598 88.14240335 -298 86 C-292.66353134 84.22117711 -288.04741524 84.55276837 -283 87 C-282.97421875 86.32453125 -282.9484375 85.6490625 -282.921875 84.953125 C-282.45439739 77.6009772 -282.45439739 77.6009772 -280.0625 74.4375 C-275.76776749 71.44420158 -272.11520175 71.64176926 -267 72 C-264.57051955 72.50798228 -262.356272 73.19786485 -260 74 C-259.7525 73.0925 -259.505 72.185 -259.25 71.25 C-257.88495609 67.70088583 -257.20591907 66.05507633 -254 64 C-240.84597995 62.93919193 -228.22422824 75.79591557 -218.7734375 83.73046875 C-199.55774894 100.2017504 -199.55774894 100.2017504 -195.9609375 111.16796875 C-193.6925915 114.44396647 -193.15620501 114.51867307 -189.4140625 115.25 C-187.48734166 115.52192033 -185.55722799 115.77045949 -183.625 116 C-165.48269507 118.67528408 -142.31664252 122.58762317 -128.6875 136 C-122.75607591 141.11570762 -113.81884185 139.78116146 -106.45410156 139.26855469 C-98.63765841 138.41319382 -92.61998846 136.21036448 -86 132 C-85.113125 131.443125 -84.22625 130.88625 -83.3125 130.3125 C-74.80230647 121.80230647 -71.82303616 109.60846579 -68.125 98.5 C-56.89663808 64.90948215 -43.17354057 31.71793072 -10.10546875 14.4921875 C-5.04545007 12.06946994 -0.6107508 10.37405005 5 10 C3.35 6.7 1.7 3.4 0 0 Z " fill="#E03B30" transform="translate(378,26)"/>
</svg>
