<?xml version="1.0" encoding="UTF-8"?>
<!-- Generator: visioncortex VTracer 0.6.4 -->
<svg version="1.1" xmlns="http://www.w3.org/2000/svg" width="512" height="512">
<path d="M0 0 C7.01232346 3.35078269 11.97003302 8.18200733 16.8359375 14.12109375 C30.52101533 28.87323418 48.36565509 34.7231936 67.44140625 39.109375 C76.6953914 41.40598445 84.72828342 45.51383494 93.13989258 49.95361328 C102.53011661 54.8624733 112.22851391 59.25177052 123.0078125 56.78515625 C134.17343311 54.79844582 145.5433231 55.5997452 156.16796875 59.375 C163.36725106 61.81686183 168.84068059 59.76029049 175.875 57.49609375 C189.17888992 53.33285538 202.50245584 50.92311168 216.40234375 49.90625 C218.11272827 49.77935791 218.11272827 49.77935791 219.85766602 49.64990234 C226.27999924 49.25897366 232.41173617 49.42667305 238.81079102 50.00976562 C244.16967541 50.4266233 249.54171195 50.4506533 254.9140625 50.52734375 C256.01134171 50.54394043 257.10862091 50.56053711 258.239151 50.57763672 C262.82936941 50.64453389 267.41959502 50.70624754 272.01000977 50.75805664 C275.39486192 50.79797968 278.77939187 50.84942765 282.1640625 50.90234375 C283.18723068 50.9107579 284.21039886 50.91917206 285.26457214 50.92784119 C290.88304994 51.02341369 296.03990925 51.61202026 301.52326965 52.82481384 C305.01489823 53.51277178 308.34062415 53.59194844 311.90234375 53.66015625 C312.97754272 53.68564796 312.97754272 53.68564796 314.07446289 53.71165466 C316.32950396 53.76397577 318.58453781 53.80467292 320.83984375 53.84375 C323.81913699 53.90242528 326.79826471 53.96647599 329.77734375 54.03515625 C330.48955078 54.05116882 331.20175781 54.0671814 331.93554688 54.0836792 C336.56103141 54.20357007 341.11264504 54.53809654 345.70703125 55.06518555 C349.09464215 55.40836728 352.43450029 55.41322816 355.83984375 55.40625 C357.11859375 55.40882813 358.39734375 55.41140625 359.71484375 55.4140625 C362.7459176 55.49855948 362.7459176 55.49855948 364.83984375 54.28125 C364.50984375 53.29125 364.17984375 52.30125 363.83984375 51.28125 C360.49138891 49.61198516 357.06861236 48.78904367 353.421875 48.01953125 C352.34897217 47.79112549 351.27606934 47.56271973 350.1706543 47.32739258 C349.00961182 47.08529053 347.84856934 46.84318848 346.65234375 46.59375 C345.43651611 46.33682373 344.22068848 46.07989746 342.96801758 45.81518555 C338.92663425 44.9639789 334.88362936 44.12095079 330.83984375 43.28125 C330.11953979 43.13155762 329.39923584 42.98186523 328.65710449 42.82763672 C320.69273507 41.17327241 312.72643023 39.52831244 304.7578125 37.89453125 C303.77652122 37.69305229 303.77652122 37.69305229 302.77540588 37.48750305 C299.37464069 36.79149733 295.97179603 36.10847143 292.56494141 35.44287109 C291.87475418 35.3073735 291.18456696 35.17187592 290.47346497 35.03227234 C288.56521969 34.65866528 286.65628718 34.28857328 284.74731445 33.91870117 C281.83984375 33.28125 281.83984375 33.28125 279.83984375 32.28125 C280.79942452 29.49846576 281.74105282 28.3514348 284.16015625 26.6328125 C289.53309763 24.65931174 294.43446921 25.13979461 300.08984375 25.46875 C301.71212891 25.53545898 301.71212891 25.53545898 303.3671875 25.60351562 C310.01862861 25.9284654 316.35699535 26.75699803 322.83984375 28.28125 C323.16984375 26.96125 323.49984375 25.64125 323.83984375 24.28125 C324.76216797 24.44173828 324.76216797 24.44173828 325.703125 24.60546875 C326.51136719 24.72535156 327.31960938 24.84523437 328.15234375 24.96875 C328.95285156 25.09636719 329.75335938 25.22398437 330.578125 25.35546875 C332.91060188 25.52646697 332.91060188 25.52646697 334.3671875 23.86328125 C334.85316406 23.34121094 335.33914063 22.81914062 335.83984375 22.28125 C337.85546875 21.65625 337.85546875 21.65625 340.08984375 21.28125 C343.07986171 20.77231077 345.31667549 20.06419756 348.109375 18.79296875 C352.09948153 17.02424732 355.96120999 16.51720507 360.27734375 16.09375 C360.98955078 16.01189453 361.70175781 15.93003906 362.43554688 15.84570312 C375.89168256 14.39131607 375.89168256 14.39131607 381.90234375 17.28125 C386.98012438 19.46848275 390.82011715 19.74325864 396.31640625 18.90234375 C403.24817434 17.93107831 403.24817434 17.93107831 406.90234375 20.09375 C408.83984375 22.28125 408.83984375 22.28125 409.83984375 24.28125 C412.52872839 24.98838209 415.18299201 25.59538903 417.90234375 26.15625 C431.48517208 29.20948287 441.43681945 35.78230212 450.83984375 46.28125 C451.40234375 49.21875 451.40234375 49.21875 450.83984375 52.28125 C444.37261526 61.52014784 430.30967087 65.07263461 419.83984375 67.28125 C408.7219897 69.01416861 397.76547486 69.56256126 386.5234375 69.4765625 C385.04557999 69.47281646 383.56771993 69.46997706 382.08985901 69.46798706 C378.2644625 69.46047548 374.43922626 69.44094006 370.6138916 69.4185791 C366.68467373 69.39784607 362.75542908 69.38892765 358.82617188 69.37890625 C351.16399069 69.3576776 343.50193996 69.32369982 335.83984375 69.28125 C348.99004037 70.96846084 362.1065558 71.8599575 375.3515625 72.39648438 C378.57248273 72.5305275 381.79184507 72.68677871 385.01171875 72.84375 C395.36139638 73.30224594 405.54666236 73.39794469 415.875 72.48828125 C416.7540802 72.41172302 417.6331604 72.33516479 418.53887939 72.25628662 C426.43162686 71.44156984 433.49002224 69.22322876 440.83984375 66.28125 C442.32484375 65.78625 442.32484375 65.78625 443.83984375 65.28125 C446.36280338 86.86156537 446.36280338 86.86156537 440.0234375 95.859375 C430.22570765 107.56757453 419.15459614 110.18953595 404.765625 113.06640625 C396.35358209 114.75153058 388.10841227 117.00860251 379.83984375 119.28125 C379.00388672 119.50876953 378.16792969 119.73628906 377.30664062 119.97070312 C374.79590386 120.65406514 372.28632564 121.3414748 369.77734375 122.03125 C369.00865967 122.24201172 368.23997559 122.45277344 367.44799805 122.66992188 C363.55325826 123.72893281 363.55325826 123.72893281 359.83984375 125.28125 C360.27296875 126.333125 360.27296875 126.333125 360.71484375 127.40625 C361.08609375 128.355 361.45734375 129.30375 361.83984375 130.28125 C362.21109375 131.1475 362.58234375 132.01375 362.96484375 132.90625 C364.53110767 138.94755369 365.17266914 145.54494036 362.15234375 151.21875 C354.09228471 161.89288224 341.49437241 163.16208203 329.08203125 164.95654297 C326.97819569 165.26121428 324.8777423 165.58274729 322.77734375 165.91015625 C317.40234269 166.72437781 312.28589186 167.38723597 306.83984375 167.28125 C307.49984375 165.96125 308.15984375 164.64125 308.83984375 163.28125 C305.74188405 161.73227015 302.57767823 162.44885461 299.21484375 162.71875 C298.5084375 162.77095703 297.80203125 162.82316406 297.07421875 162.87695312 C295.32904388 163.00666207 293.5843865 163.14329954 291.83984375 163.28125 C292.34588367 161.11250748 292.83968188 159.28157373 293.83984375 157.28125 C291.52984375 156.95125 289.21984375 156.62125 286.83984375 156.28125 C289.58307009 149.76608744 296.08459629 145.79830179 302.40234375 143.09375 C309.35671334 140.54785559 316.63775729 138.96114114 323.83984375 137.28125 C324.47580783 135.40539707 324.47580783 135.40539707 324.83984375 133.28125 C323.48451115 130.74451712 323.48451115 130.74451712 321.83984375 128.28125 C319.5325426 121.1454246 320.36863664 113.23151999 322.83984375 106.28125 C317.8506448 113.0998219 315.97842666 119.84442972 316.83984375 128.28125 C317.44806626 131.29541599 318.12973898 134.28958993 318.83984375 137.28125 C297.77057219 142.88546233 277.44728147 145.34110925 255.60546875 145.52734375 C253.59099463 145.55187725 251.57652059 145.57642192 249.56205368 145.60154057 C244.69102122 145.66111927 239.81991072 145.71226648 234.94873047 145.75805664 C220.66859625 145.89609062 206.39379826 146.12367526 192.13671875 147.00390625 C191.06286926 147.05510117 189.98901978 147.10629608 188.88262939 147.15904236 C184.1051504 147.50325114 181.59119689 147.68890554 177.75390625 150.71411133 C177.12226563 151.56126709 176.490625 152.40842285 175.83984375 153.28125 C175.205625 154.05726563 174.57140625 154.83328125 173.91796875 155.6328125 C172.70074492 157.14653957 171.49234794 158.66740771 170.29296875 160.1953125 C163.63584874 165.85598461 154.43793652 165.98403494 146.08984375 166.78125 C134.89846021 167.95817761 124.52025656 169.6430392 113.83984375 173.28125 C114.16984375 171.63125 114.49984375 169.98125 114.83984375 168.28125 C108.89829625 170.19557595 108.89829625 170.19557595 103.08984375 172.46875 C100.54837252 173.3865035 98.52160592 173.43449355 95.83984375 173.28125 C96.49984375 171.63125 97.15984375 169.98125 97.83984375 168.28125 C95.85984375 167.29125 95.85984375 167.29125 93.83984375 166.28125 C94.34999689 161.81740999 95.76771507 159.53379733 98.83984375 156.28125 C101.20653343 155.00363155 103.43486683 153.92816582 105.90234375 152.90625 C111.78197519 150.33574349 117.07659029 147.41954663 122.375 143.76171875 C125.11128478 142.11821331 127.78836514 141.18916453 130.83984375 140.28125 C130.87722656 139.3634375 130.91460937 138.445625 130.953125 137.5 C131.32847303 130.49350347 131.89901143 124.67436374 134.83984375 118.28125 C129.45413403 123.08472083 126.91858096 128.16158443 125.83984375 135.28125 C118.63828914 137.17401461 111.95778057 137.61628013 104.52734375 137.59375 C103.47611328 137.60986328 102.42488281 137.62597656 101.34179688 137.64257812 C93.77280343 137.64723024 87.08637913 136.40799337 79.83984375 134.28125 C78.42892456 133.88486328 78.42892456 133.88486328 76.98950195 133.48046875 C74.58690919 132.79816576 72.213223 132.05866539 69.83984375 131.28125 C69.16824219 131.06855469 68.49664062 130.85585938 67.8046875 130.63671875 C63.13184614 128.94020947 61.14610449 126.61702019 58.83984375 122.28125 C58.83984375 121.62125 58.83984375 120.96125 58.83984375 120.28125 C55.15683723 120.86038 52.45236752 121.89425918 49.21484375 123.71875 C41.22110696 127.82845717 32.73318795 128.86209251 23.83984375 128.28125 C22.57011719 128.21292969 21.30039063 128.14460937 19.9921875 128.07421875 C8.48083529 127.2271371 0.09172853 123.95620717 -9.64453125 117.6796875 C-13.53994869 115.51422253 -17.72118838 114.59713969 -22.00390625 113.44140625 C-25.96582358 111.98510743 -29.22676865 110.1480252 -31.16015625 106.28125 C-31.23081242 104.24069995 -31.24437601 102.19790743 -31.22265625 100.15625 C-31.21363281 99.06054688 -31.20460938 97.96484375 -31.1953125 96.8359375 C-31.18371094 95.99289062 -31.17210937 95.14984375 -31.16015625 94.28125 C-30.27070313 94.74144531 -30.27070313 94.74144531 -29.36328125 95.2109375 C-26.70185973 96.5038976 -23.97676433 97.38505652 -21.16015625 98.28125 C-19.51015625 94.98125 -17.86015625 91.68125 -16.16015625 88.28125 C-14.16015625 90.28125 -12.16015625 92.28125 -10.16015625 94.28125 C-7.58106559 94.46270851 -5.05428972 94.55945018 -2.47265625 94.59375 C-1.76431641 94.62275391 -1.05597656 94.65175781 -0.32617188 94.68164062 C5.78700425 94.75502132 9.08288423 92.67243897 13.70947266 88.65966797 C16.27600044 86.99904273 17.62800091 86.95492079 20.65625 87.05859375 C21.58058838 87.07881592 22.50492676 87.09903809 23.45727539 87.11987305 C24.42914795 87.15250244 25.40102051 87.18513184 26.40234375 87.21875 C40.91133575 87.88511222 40.91133575 87.88511222 53.83984375 82.28125 C56.19602917 79.39525612 56.19602917 79.39525612 55.65234375 75.78125 C54.74356281 71.79198276 54.74356281 71.79198276 51.83984375 69.28125 C51.09734375 68.745 50.35484375 68.20875 49.58984375 67.65625 C46.333381 66.02801863 43.44344932 65.63454466 39.83984375 65.28125 C39.50984375 64.29125 39.17984375 63.30125 38.83984375 62.28125 C34.87984375 63.27125 34.87984375 63.27125 30.83984375 64.28125 C30.67484375 62.981875 30.50984375 61.6825 30.33984375 60.34375 C28.95786444 54.34881908 25.98933856 49.72528511 20.83984375 46.28125 C15.86116237 45.63008731 11.54745828 46.71204516 6.83984375 48.28125 C6.6696875 47.67539063 6.49953125 47.06953125 6.32421875 46.4453125 C4.99932188 41.86455205 3.54881696 37.43546305 1.71484375 33.03125 C0.23559559 29.45169529 -0.75165368 26.16202441 -1.16015625 22.28125 C-2.95453125 22.3740625 -2.95453125 22.3740625 -4.78515625 22.46875 C-8.95251238 22.44662245 -11.67434394 21.71321208 -15.16015625 19.28125 C-17.60398847 15.8914182 -18.40723159 13.3206233 -18.09765625 9.21875 C-17.43551906 5.37835428 -15.93931993 3.06041368 -13.16015625 0.28125 C-9.14251729 -1.72756948 -4.19916369 -1.39719009 0 0 Z M311.83984375 70.28125 C315.83984375 71.28125 315.83984375 71.28125 315.83984375 71.28125 Z " fill="#E03B30" transform="translate(46.16015625,169.71875)"/>
</svg>
