<?xml version="1.0" encoding="UTF-8"?>
<!-- Generator: visioncortex VTracer 0.6.4 -->
<svg version="1.1" xmlns="http://www.w3.org/2000/svg" width="512" height="512">
<path d="M0 0 C4.59891662 2.92516125 8.39701545 6.68335078 12.296875 10.4609375 C13.62174794 11.63720302 14.95456501 12.80461022 16.296875 13.9609375 C20.19200311 17.35346843 24.02470263 20.81287951 27.859375 24.2734375 C29.99104981 26.18647899 32.1370661 28.07981362 34.296875 29.9609375 C38.19200311 33.35346843 42.02470263 36.81287951 45.859375 40.2734375 C47.99104981 42.18647899 50.1370661 44.07981362 52.296875 45.9609375 C56.19200311 49.35346843 60.02470263 52.81287951 63.859375 56.2734375 C65.99104981 58.18647899 68.1370661 60.07981362 70.296875 61.9609375 C74.19200311 65.35346843 78.02470263 68.81287951 81.859375 72.2734375 C83.99104981 74.18647899 86.1370661 76.07981362 88.296875 77.9609375 C92.19200311 81.35346843 96.02470263 84.81287951 99.859375 88.2734375 C101.99104981 90.18647899 104.1370661 92.07981362 106.296875 93.9609375 C110.19200311 97.35346843 114.02470263 100.81287951 117.859375 104.2734375 C119.99104981 106.18647899 122.1370661 108.07981362 124.296875 109.9609375 C128.19200311 113.35346843 132.02470263 116.81287951 135.859375 120.2734375 C137.99104981 122.18647899 140.1370661 124.07981362 142.296875 125.9609375 C146.19200311 129.35346843 150.02470263 132.81287951 153.859375 136.2734375 C155.99104981 138.18647899 158.1370661 140.07981362 160.296875 141.9609375 C164.19200311 145.35346843 168.02470263 148.81287951 171.859375 152.2734375 C173.99104981 154.18647899 176.1370661 156.07981362 178.296875 157.9609375 C182.18502061 161.3473869 186.01226724 164.79886156 189.8359375 168.2578125 C192.08881764 170.27467663 194.37377419 172.24601859 196.671875 174.2109375 C204.38466427 180.99447505 208.11873051 188.27544341 209.296875 198.4609375 C209.43413071 201.66232946 209.4362419 204.85924868 209.43058777 208.06323242 C209.43285333 209.01165858 209.43511888 209.96008474 209.43745309 210.93725109 C209.44376743 214.1053153 209.44296538 217.27333645 209.44213867 220.44140625 C209.4451317 222.71676692 209.44853456 224.99212708 209.45231628 227.26748657 C209.46114424 233.44090162 209.46349385 239.6143028 209.46413207 245.78772354 C209.46484307 249.64472854 209.46697829 253.50173001 209.46962929 257.35873413 C209.47840046 270.12022713 209.4830495 282.88170858 209.48229881 295.64320385 C209.48223888 296.67398299 209.48223888 296.67398299 209.48217773 297.72558594 C209.48213685 298.41361388 209.48209597 299.10164182 209.48205385 299.8105191 C209.4816472 310.96658427 209.49122329 322.12261573 209.5053161 333.27867115 C209.51968364 344.74290662 209.52640302 356.20711881 209.52572232 367.67136478 C209.52546726 374.10403517 209.52832357 380.53666735 209.53890038 386.96932983 C209.54857303 393.01694479 209.54866622 399.06448494 209.54138374 405.11210251 C209.54033698 407.33127323 209.54270618 409.5504486 209.5487442 411.76961136 C209.55645385 414.79937665 209.55182604 417.82888293 209.54411316 420.85864258 C209.54925672 421.73617785 209.55440029 422.61371313 209.55969971 423.51784039 C209.51845265 430.85248663 208.72340798 437.03440452 203.296875 442.4609375 C188.95811634 449.63031683 171.32809454 445.4609375 155.296875 445.4609375 C155.296875 385.7309375 155.296875 326.0009375 155.296875 264.4609375 C42.436875 264.4609375 -70.423125 264.4609375 -186.703125 264.4609375 C-186.703125 324.1909375 -186.703125 383.9209375 -186.703125 445.4609375 C-228.703125 445.4609375 -228.703125 445.4609375 -235.703125 441.4609375 C-239.97451684 435.90906514 -240.28104774 431.33222174 -240.22451782 424.47468567 C-240.23216892 423.48486826 -240.23982001 422.49505085 -240.24770296 421.47523898 C-240.26830005 418.16662463 -240.26039111 414.85870855 -240.25244141 411.55004883 C-240.26113807 409.17442178 -240.27150518 406.79880036 -240.28341675 404.42318726 C-240.30741723 398.64416163 -240.31250194 392.86535239 -240.30781622 387.08628295 C-240.30424484 382.38544476 -240.30775992 377.68466287 -240.31626511 372.98383141 C-240.31745548 372.31383173 -240.31864586 371.64383205 -240.31987231 370.95352935 C-240.32229593 369.59221786 -240.3247242 368.23090637 -240.32715707 366.86959489 C-240.34889732 354.10989476 -240.34458908 341.35030039 -240.33238737 328.59059431 C-240.32205832 316.93663198 -240.34453685 305.28300447 -240.38258381 293.62910835 C-240.42140318 281.64614567 -240.43784118 269.66334112 -240.43033731 257.6803152 C-240.42652155 250.9595359 -240.43193989 244.23908334 -240.45976639 237.5183506 C-240.48497161 231.19391672 -240.48098977 224.87015074 -240.45494461 218.54572678 C-240.45022389 216.23028904 -240.45564372 213.91480397 -240.47219086 211.59942055 C-240.56888975 197.01156374 -240.32448201 186.25433648 -229.828125 175.1484375 C-228.47114819 173.89940202 -227.09632668 172.66943441 -225.703125 171.4609375 C-225.06375 170.89117187 -224.424375 170.32140625 -223.765625 169.734375 C-222.46304353 168.58411152 -221.15297382 167.44227796 -219.8359375 166.30859375 C-217.42935679 164.223772 -215.06547555 162.09572217 -212.703125 159.9609375 C-209.08636155 156.69702902 -205.43922892 153.47302801 -201.765625 150.2734375 C-199.39348071 148.18882586 -197.04756435 146.07665106 -194.703125 143.9609375 C-191.08636155 140.69702902 -187.43922892 137.47302801 -183.765625 134.2734375 C-181.39348071 132.18882586 -179.04756435 130.07665106 -176.703125 127.9609375 C-173.08636155 124.69702902 -169.43922892 121.47302801 -165.765625 118.2734375 C-163.39348071 116.18882586 -161.04756435 114.07665106 -158.703125 111.9609375 C-155.08636155 108.69702902 -151.43922892 105.47302801 -147.765625 102.2734375 C-145.39348071 100.18882586 -143.04756435 98.07665106 -140.703125 95.9609375 C-137.08636155 92.69702902 -133.43922892 89.47302801 -129.765625 86.2734375 C-127.39348071 84.18882586 -125.04756435 82.07665106 -122.703125 79.9609375 C-119.08636155 76.69702902 -115.43922892 73.47302801 -111.765625 70.2734375 C-109.39348071 68.18882586 -107.04756435 66.07665106 -104.703125 63.9609375 C-101.08636155 60.69702902 -97.43922892 57.47302801 -93.765625 54.2734375 C-91.39348071 52.18882586 -89.04756435 50.07665106 -86.703125 47.9609375 C-81.37977807 43.16185958 -76.01449161 38.420158 -70.55078125 33.78125 C-64.54272813 28.67347585 -58.60539242 23.51709994 -52.828125 18.1484375 C-52.28615479 17.64530029 -51.74418457 17.14216309 -51.18579102 16.6237793 C-50.66299561 16.13820557 -50.1402002 15.65263184 -49.6015625 15.15234375 C-35.69864314 2.24249006 -19.57112781 -9.2601645 0 0 Z M-79.61352539 133.32055664 C-81.76651616 137.54983517 -81.17227355 142.25185492 -81.140625 146.8984375 C-81.16060547 147.93548828 -81.18058594 148.97253906 -81.20117188 150.04101562 C-81.20251922 156.07454667 -81.20251922 156.07454667 -78.92578125 161.55859375 C-75.33652096 164.63059684 -72.65808112 165.70927026 -67.93460083 165.72836304 C-66.50053894 165.74115799 -66.50053894 165.74115799 -65.0375061 165.75421143 C-63.47424088 165.75285187 -63.47424088 165.75285187 -61.87939453 165.75146484 C-60.77654114 165.75818207 -59.67368774 165.76489929 -58.53741455 165.77182007 C-54.88687654 165.7908384 -51.23652199 165.7947262 -47.5859375 165.796875 C-45.05011926 165.80330012 -42.51430177 165.81002827 -39.97848511 165.81704712 C-34.66060366 165.82902941 -29.34279068 165.83281255 -24.02490234 165.83154297 C-17.88544498 165.8303418 -11.7463393 165.85144018 -5.60697091 165.8830303 C0.30690155 165.91237173 6.22066695 165.91951807 12.13461685 165.91832352 C14.64723268 165.92068458 17.15985108 165.92953638 19.6724205 165.94498825 C23.18669593 165.96457691 26.70006555 165.95883734 30.21435547 165.94677734 C31.771548 165.96363586 31.771548 165.96363586 33.36019897 165.98083496 C39.31847936 165.92885943 42.77966527 165.4670473 47.296875 161.4609375 C50.32884896 156.91297656 49.66530139 152.43685728 49.671875 147.0859375 C49.69636719 146.044375 49.72085938 145.0028125 49.74609375 143.9296875 C49.76322296 139.46467324 49.76727859 136.34600965 47.6484375 132.359375 C41.97140296 127.7762541 35.57016674 128.16901466 28.62915039 128.1862793 C27.56662552 128.18116837 26.50410065 128.17605743 25.40937805 128.17079163 C21.90437149 128.15691523 18.39956198 128.15785088 14.89453125 128.16015625 C12.45364814 128.15626843 10.01276571 128.15193358 7.57188416 128.14717102 C2.4584636 128.13971313 -2.6548879 128.13999713 -7.76831055 128.14526367 C-14.31645727 128.15105948 -20.86432125 128.13412222 -27.41242123 128.110919 C-32.45249582 128.09617807 -37.49250235 128.09531044 -42.53259468 128.09842873 C-44.94668704 128.09791576 -47.36078323 128.09268263 -49.77485466 128.08261681 C-53.15209136 128.07026233 -56.52877778 128.07703854 -59.90600586 128.08862305 C-60.8999939 128.08097931 -61.89398193 128.07333557 -62.91809082 128.06546021 C-69.34413696 128.11410983 -74.78969289 128.6249487 -79.61352539 133.32055664 Z M-181.078125 222.9609375 C-181.53960937 223.528125 -182.00109375 224.0953125 -182.4765625 224.6796875 C-187.49650448 231.96979433 -186.703125 238.52321699 -186.703125 247.4609375 C-73.843125 247.4609375 39.016875 247.4609375 155.296875 247.4609375 C155.296875 235.17613766 155.08768839 229.07602156 147.40625 220.1875 C140.79117573 214.77293921 134.00932414 215.03126241 125.8160553 215.07325745 C123.92894944 215.06517914 123.92894944 215.06517914 122.00372022 215.05693763 C118.52322108 215.04250552 115.04295919 215.04672065 111.56244719 215.05410445 C107.80435004 215.05883937 104.04630398 215.04632343 100.28822327 215.03608704 C92.93040621 215.01890021 85.57267455 215.01805875 78.21484262 215.02329994 C72.23394773 215.02734298 66.25307806 215.02589649 60.27218437 215.02055168 C59.42063132 215.01980326 58.56907827 215.01905484 57.69172059 215.01828374 C55.96174117 215.01675224 54.23176176 215.0152139 52.50178235 215.01366877 C36.2823615 214.99994423 20.0629889 215.00538116 3.84356915 215.01685398 C-10.9913075 215.02678702 -25.82605944 215.01384441 -40.66091686 214.98991979 C-55.89827729 214.96553141 -71.13557963 214.95592023 -86.3729592 214.96257252 C-94.92564207 214.96606523 -103.47822903 214.96382919 -112.03089714 214.94632149 C-119.31132101 214.93160281 -126.59158141 214.93095968 -133.87200206 214.9483924 C-137.58545782 214.95690747 -141.29862151 214.95903984 -145.01206207 214.94374084 C-149.04005225 214.92735155 -153.06733715 214.94203443 -157.09532166 214.95973206 C-158.26565616 214.95012705 -159.43599067 214.94052204 -160.64178985 214.93062598 C-168.73560208 215.00387191 -175.75744069 216.19474936 -181.078125 222.9609375 Z " fill="#E03B30" transform="translate(271.703125,34.5390625)"/>
<path d="M0 0 C16.60760293 -0.75015521 27.50595633 2.64819769 40 14 C42.8274715 16.88419546 45.43853337 19.88052358 48 23 C48.66 23.66 49.32 24.32 50 25 C50.62261719 24.27296875 50.62261719 24.27296875 51.2578125 23.53125 C59.44324526 14.62659512 69.58940525 9.53747626 80.875 5.6875 C81.54450684 5.45724121 82.21401367 5.22698242 82.90380859 4.98974609 C96.54369827 0.64296806 109.78950045 -0.43087241 124 -0.1875 C125.56509099 -0.17239483 127.13019642 -0.15871694 128.6953125 -0.14648438 C132.46391053 -0.11401139 136.2317865 -0.06256826 140 0 C140 4.43068916 139.02061038 6.57069029 137.1875 10.5625 C127.71108861 31.78788346 127.44760417 54.313733 135.5 76.0625 C136.71156264 79.14188839 137.94638801 81.91111031 139.65625 84.74609375 C141 87 141 87 141 89 C110.81768879 91.29456167 78.1519179 88.70583983 53.75 68.6875 C52.38875 67.3571875 52.38875 67.3571875 51 66 C51 65.34 51 64.68 51 64 C48.46502627 66.51229955 45.96315356 69.03946586 43.52734375 71.6484375 C35.54391275 80.05331659 26.06723082 88.24776809 13.94482422 89.15356445 C11.81336808 89.19537209 9.69368076 89.17569597 7.5625 89.125 C6.83095703 89.11597656 6.09941406 89.10695313 5.34570312 89.09765625 C3.56365702 89.07436153 1.78178241 89.0385019 0 89 C-3.32638415 80.44644076 -4.04942121 73.43198059 -1.16796875 64.65234375 C2.51119458 56.29732066 8.32459318 49.83795589 16 45 C15.278125 44.278125 14.55625 43.55625 13.8125 42.8125 C12.4203125 41.4203125 12.4203125 41.4203125 11 40 C10.195625 39.236875 9.39125 38.47375 8.5625 37.6875 C1.6245733 30.41113785 -2.88325675 23.24361898 -3.375 12.9375 C-2.93248801 8.29112406 -1.68379049 4.32974699 0 0 Z " fill="#E03B30" transform="translate(155,340)"/>
<path d="M0 0 C14.23092101 0.99285495 30.48987647 9.4072508 40 20 C45.41365911 27.48003345 49.34994886 35.53327003 48 45 C44.39060208 58.35693361 35.43925446 66.13110188 24 73 C16.34163827 77.05087028 7.80886295 81.29158257 -1 81 C-11.69210462 64.39090545 -16.0165975 46.52940141 -12.3046875 26.81640625 C-9.95263331 17.16112495 -6.1936113 7.84769147 0 0 Z " fill="#E03B30" transform="translate(312,344)"/>
</svg>
