<?xml version="1.0" encoding="UTF-8"?>
<!-- Generator: visioncortex VTracer 0.6.4 -->
<svg version="1.1" xmlns="http://www.w3.org/2000/svg" width="512" height="512">
<path d="M0 0 C3.48792565 2.71200998 5.45364269 5.26327182 6.84375 9.43359375 C7.05084769 13.2953566 6.95735521 17.1548353 6.88525391 21.02050781 C6.85566079 22.74108655 6.83553134 24.46183894 6.82177734 26.18261719 C6.52275651 56.92601325 -2.88394979 82.67333747 -14.4375 110.796875 C-22.3541397 130.09090454 -29.07454293 148.51969946 -31.15625 169.43359375 C-31.28773437 170.52671875 -31.41921875 171.61984375 -31.5546875 172.74609375 C-32.07588867 180.51019389 -30.37898659 186.58930881 -27.46875 193.68359375 C-27.1298877 194.51850342 -26.79102539 195.35341309 -26.44189453 196.21362305 C-24.39594942 200.93839443 -24.39594942 200.93839443 -20.38671875 203.98046875 C-19.65066406 204.13 -18.91460937 204.27953125 -18.15625 204.43359375 C-14.04453754 201.15188536 -10.28639716 197.63097969 -6.75390625 193.734375 C-6.15143066 193.07058838 -5.54895508 192.40680176 -4.92822266 191.72290039 C-3.72352047 190.38368328 -2.52879139 189.03541379 -1.34521484 187.67749023 C3.1643144 182.66668934 7.07839927 179.72891538 14.03125 179.18359375 C16.84375 179.43359375 16.84375 179.43359375 19.03125 180.05859375 C19.629375 180.18234375 20.2275 180.30609375 20.84375 180.43359375 C21.83375 179.77359375 22.82375 179.11359375 23.84375 178.43359375 C28.74590793 177.95141428 30.93230366 177.96159475 35.34375 180.24609375 C36.16875 180.96796875 36.99375 181.68984375 37.84375 182.43359375 C37.84375 183.42359375 37.84375 184.41359375 37.84375 185.43359375 C42.29303104 183.36785612 46.13620804 181.31656655 49.96875 178.24609375 C53.21965341 175.73461151 55.59476646 174.33702594 59.84375 174.43359375 C62.21875 175.87109375 62.21875 175.87109375 63.84375 177.43359375 C63.51375 179.41359375 63.18375 181.39359375 62.84375 183.43359375 C63.42898437 183.01207031 64.01421875 182.59054688 64.6171875 182.15625 C70.79024504 178.21698656 76.14386563 176.7525409 83.34375 176.30859375 C84.13313965 176.2506665 84.9225293 176.19273926 85.73583984 176.13305664 C91.30133508 175.93081684 91.30133508 175.93081684 93.875 178.31640625 C94.84375 180.43359375 94.84375 180.43359375 94.84375 182.43359375 C99.60118727 183.40872643 104.09459889 183.45214414 108.91796875 183.25 C110.48887562 183.2081046 112.05984392 183.16846339 113.63085938 183.13085938 C116.07650394 183.06949211 118.51874613 182.99666502 120.96264648 182.88500977 C131.07972066 182.44130541 137.78949644 182.51271019 145.75170898 189.60131836 C149.51308932 192.89565368 153.11267475 192.47369588 157.87890625 192.36328125 C169.86173327 192.17067553 169.86173327 192.17067553 175.84375 195.43359375 C180.96262381 201.3607108 182.15683092 207.76311119 181.84375 215.43359375 C182.57078125 215.54058594 183.2978125 215.64757812 184.046875 215.7578125 C187.0600534 216.485857 188.99860742 217.57112427 191.59375 219.24609375 C194.82127363 221.25731026 197.9653658 223.01715648 201.46875 224.49609375 C205.1569574 226.05922193 208.38652872 227.96355056 211.73828125 230.14453125 C214.88507864 232.0711419 218.19983918 233.62225214 221.515625 235.234375 C223.53731193 236.27574729 225.35891036 237.38264532 227.21875 238.68359375 C229.62134353 240.28532277 231.09573162 240.84890899 233.84375 241.43359375 C235.83666461 237.00518388 237.80261008 232.57269607 239.6328125 228.07421875 C247.62182271 208.71957965 257.86656086 197.99273434 276.78125 188.93359375 C280.30859616 187.4811571 283.84148251 186.77973866 287.578125 186.07421875 C290.98486007 185.11093504 293.7609831 183.29356088 296.703125 181.359375 C299.60732391 180.10336197 300.89492554 180.30610204 303.84375 181.43359375 C306.1328125 183.62890625 306.1328125 183.62890625 308.46875 186.55859375 C308.88898438 187.08340332 309.30921875 187.60821289 309.7421875 188.14892578 C311.12788363 189.8968388 312.48780112 191.66252023 313.84375 193.43359375 C314.5857666 194.39362305 314.5857666 194.39362305 315.34277344 195.37304688 C316.8566212 197.34172782 318.35361725 199.32191494 319.84375 201.30859375 C320.54685303 202.23502686 320.54685303 202.23502686 321.26416016 203.18017578 C323.93639681 206.81414285 325.65466401 210.0204911 326.84375 214.43359375 C327.05257813 215.13742188 327.26140625 215.84125 327.4765625 216.56640625 C328.58228913 221.04196643 328.81869524 224.82273739 328.53125 229.43359375 C328.36966569 235.48146349 330.32465789 238.07824854 334.28515625 242.453125 C335.84375 244.43359375 335.84375 244.43359375 336.28125 247.99609375 C336.136875 248.80046875 335.9925 249.60484375 335.84375 250.43359375 C335.24304688 250.61148438 334.64234375 250.789375 334.0234375 250.97265625 C330.3518861 253.43351686 329.6201857 257.7964669 328.30859375 261.84765625 C326.5006065 266.9220072 324.58894658 268.85611929 319.84375 271.43359375 C320.194375 272.48546875 320.545 273.53734375 320.90625 274.62109375 C321.81774019 278.32782054 321.72565791 279.86279179 320.84375 283.43359375 C320.0703125 283.64113281 319.296875 283.84867187 318.5 284.0625 C312.18547898 285.9302853 307.69191522 287.82099883 302.9921875 292.44140625 C299.43870328 295.73645526 295.36604635 298.37707285 291.3828125 301.125 C288.49135466 303.75400244 287.73822647 305.67787026 286.84375 309.43359375 C284.37574953 308.2818602 282.79591435 307.3857581 280.84375 305.43359375 C277.30912413 305.43848526 277.30912413 305.43848526 273.84375 306.43359375 C272.43520334 308.25061233 272.43520334 308.25061233 271.84375 310.43359375 C271.18375 311.42359375 270.52375 312.41359375 269.84375 313.43359375 C269.98359554 315.77282817 270.41422493 317.97593852 270.84765625 320.27734375 C270.84375 322.43359375 270.84375 322.43359375 269.6328125 324.234375 C266.43238594 326.37963909 263.49503107 325.09202148 259.84375 324.43359375 C260.070625 325.03171875 260.2975 325.62984375 260.53125 326.24609375 C260.84375 328.43359375 260.84375 328.43359375 259.90625 330.05859375 C252.86940679 334.74982256 243.90646577 333.63742645 235.84375 333.43359375 C235.49570312 334.46226562 235.14765625 335.4909375 234.7890625 336.55078125 C232.81303573 341.14302123 229.64115024 343.60425269 225.71875 346.55859375 C224.70506348 347.33843628 224.70506348 347.33843628 223.67089844 348.1340332 C209.52444712 358.86249311 198.51182758 358.77044838 181.046875 357.57421875 C172.83582792 357.14205838 165.7496127 358.19553103 157.84375 360.43359375 C163.58231754 365.2189755 168.02584723 366.5762225 175.46875 366.24609375 C180.47038262 366.18468216 180.47038262 366.18468216 183.65625 368.30859375 C189.61311395 376.8183994 194.1830592 385.94030381 198.61132812 395.31054688 C201.6888114 401.63870513 205.22766333 407.11308851 209.84375 412.43359375 C210.30450928 413.03179932 210.76526855 413.63000488 211.23999023 414.24633789 C212.03385132 414.83402954 212.03385132 414.83402954 212.84375 415.43359375 C213.65175049 415.2540918 214.45975098 415.07458984 215.29223633 414.88964844 C216.13423584 414.73915039 216.97623535 414.58865234 217.84375 414.43359375 C224.62580949 419.46933406 229.16181984 428.17616677 233.65625 435.18359375 C239.53864239 444.1933253 245.66118645 452.43482979 252.84375 460.43359375 C253.56046875 461.34753906 254.2771875 462.26148438 255.015625 463.203125 C256.65008073 465.5068729 256.65008073 465.5068729 258.84375 466.43359375 C261.40861633 466.59334321 263.96404445 466.710991 266.53125 466.80859375 C277.81970752 467.3699514 288.94861064 468.57728678 298.84375 474.43359375 C298.53125 476.37109375 298.53125 476.37109375 297.84375 478.43359375 C295.09296116 479.35052336 293.48426087 479.54245458 290.65625 479.49609375 C289.398125 479.47546875 288.14 479.45484375 286.84375 479.43359375 C288.31784152 481.66204723 288.31784152 481.66204723 290.84375 483.43359375 C296.57700517 483.08947554 301.62186278 481.71908536 307.03125 479.87109375 C311.34393812 478.39836959 315.2207284 477.08350085 319.84375 477.43359375 C319.32140324 484.87703512 317.44205627 489.40223643 312.59375 495.05859375 C299.59339616 506.28617207 285.45690657 507.64068709 268.84375 506.43359375 C259.88903859 504.70583796 252.22713855 500.08672773 247.03125 492.55859375 C243.91022504 488.09024107 239.95817534 485.38801137 235.51953125 482.30078125 C226.12794859 475.7472389 219.23661159 467.11810904 212.28125 458.12109375 C211.6833667 457.35200684 211.0854834 456.58291992 210.46948242 455.79052734 C206.7022728 450.91890638 203.03852859 445.98239876 199.42456055 440.99633789 C193.35213775 432.62506333 187.15944994 424.76099881 179.84375 417.43359375 C179.17214844 416.75039063 178.50054687 416.0671875 177.80859375 415.36328125 C173.37851659 411.16062078 168.64233988 408.63792492 163.06640625 406.18359375 C159.84375 404.43359375 159.84375 404.43359375 158.03173828 402.71386719 C151.49881047 396.59614807 145.316243 396.51727444 136.83209229 396.65075684 C133.03591017 396.70644756 129.2412965 396.64120612 125.4453125 396.58984375 C124.69913666 396.5824115 123.95296082 396.57497925 123.18417358 396.56732178 C110.44674693 396.40419985 97.67723862 395.25807893 86.21875 389.32421875 C83.11542198 388.16047074 81.92323132 388.15867911 78.84375 389.43359375 C76.58220381 391.49230727 74.69571247 393.80436241 72.78125 396.18359375 C72.0068457 397.11558594 72.0068457 397.11558594 71.21679688 398.06640625 C69.04636511 400.68751365 66.94112999 403.29616395 64.97265625 406.07421875 C59.20718924 412.46383724 52.93197062 414.24191165 44.59375 415.12109375 C42.73040046 415.35492521 40.86711864 415.58929694 39.00390625 415.82421875 C37.28386318 416.02742007 35.56381193 416.23055218 33.84375 416.43359375 C22.47589069 417.68150534 22.47589069 417.68150534 12.84375 423.43359375 C10.54133481 423.87842838 8.24937757 424.27064534 5.93359375 424.6328125 C4.46564256 424.87098884 2.99779173 425.10978431 1.5300293 425.34912109 C0.36786392 425.53725372 0.36786392 425.53725372 -0.81777954 425.72918701 C-27.42619745 430.0724384 -54.49941707 435.20364481 -78.07128906 448.91210938 C-82.98929043 451.65019483 -87.2904669 452.31582258 -92.86328125 452.30078125 C-95.35618387 452.19017071 -95.35618387 452.19017071 -97.15625 454.43359375 C-96.91390625 455.11873047 -96.6715625 455.80386719 -96.421875 456.50976562 C-95.32045691 459.64668907 -94.23825699 462.7899248 -93.15625 465.93359375 C-92.7746875 467.01125 -92.393125 468.08890625 -92 469.19921875 C-89.97012575 475.14385048 -88.37520521 480.14263302 -89.15625 486.43359375 C-90.3984375 488.67578125 -90.3984375 488.67578125 -92.03125 490.30859375 C-92.56492187 490.86289062 -93.09859375 491.4171875 -93.6484375 491.98828125 C-94.14601563 492.46523438 -94.64359375 492.9421875 -95.15625 493.43359375 C-95.81625 494.09359375 -96.47625 494.75359375 -97.15625 495.43359375 C-94.02581964 498.17272032 -90.84364642 499.39082174 -86.9609375 500.6875 C-85.15625 501.43359375 -85.15625 501.43359375 -83.15625 503.43359375 C-83.15625 504.42359375 -83.15625 505.41359375 -83.15625 506.43359375 C-89.49168104 509.37210536 -96.79705918 509.6289712 -103.53515625 507.78125 C-108.70976458 505.42179062 -112.4795696 501.69305799 -116.15625 497.43359375 C-116.74019531 496.84449219 -117.32414062 496.25539063 -117.92578125 495.6484375 C-124.31115995 488.12655112 -122.65005764 478.66440943 -122.15625 469.43359375 C-122.09533889 467.80607466 -122.03669796 466.17846882 -121.98046875 464.55078125 C-121.05857628 440.98292865 -121.05857628 440.98292865 -114.15625 431.43359375 C-105.38341081 424.57391317 -93.96030687 422.54908588 -83.15625 421.18359375 C-70.0226439 419.44929991 -57.81002336 414.181102 -45.72119141 408.94604492 C-36.00228547 404.83340361 -26.35979392 402.4422215 -16.03125 400.37109375 C7.11620714 396.1036032 7.11620714 396.1036032 24.90625 381.68359375 C26.17492764 379.33249208 26.17492764 379.33249208 24.84375 376.43359375 C17.31608121 372.91172014 9.17240358 371.84467962 1.04296875 370.41601562 C-8.30476528 368.66967354 -14.59087492 366.47703012 -21.15625 359.43359375 C-22.21788143 358.52262178 -23.29433305 357.62871708 -24.3828125 356.75 C-24.9396875 356.29689453 -25.4965625 355.84378906 -26.0703125 355.37695312 C-27.21377602 354.4540893 -28.36227164 353.5374269 -29.515625 352.62695312 C-38.62564445 345.15885578 -41.42961682 331.67335742 -43.15625 320.43359375 C-43.71063437 311.42626482 -43.42644423 302.41640718 -43.02441406 293.40600586 C-43.2141401 289.12838646 -44.2943896 286.42403816 -47.09375 283.20703125 C-49.90744041 279.42347028 -50.90596672 275.56301567 -52.15625 271.05859375 C-52.41116211 270.17171875 -52.66607422 269.28484375 -52.92871094 268.37109375 C-53.68358297 265.72856568 -54.42117768 263.08168671 -55.15625 260.43359375 C-55.55701841 259.02466183 -55.95803558 257.61580063 -56.359375 256.20703125 C-59.75499816 243.9675836 -61.52731699 232.39874973 -61.46875 219.68359375 C-61.46355347 217.83870361 -61.46355347 217.83870361 -61.45825195 215.95654297 C-61.34806636 206.72408616 -60.34458702 198.38506286 -58.15625 189.43359375 C-56.29502866 181.24251651 -54.72390454 173.05173868 -53.42016602 164.75439453 C-51.45533171 152.36953043 -48.96425584 141.01506515 -44.15625 129.43359375 C-39.95456231 119.20994825 -36.16878398 108.91294892 -32.65625 98.43359375 C-29.94698338 90.35072044 -27.17892985 82.33422447 -23.9609375 74.4375 C-19.1198995 62.54684467 -13.31723761 46.83057931 -18.46484375 34.23046875 C-26.08217141 21.63461054 -45.04872386 19.74782834 -58.15625 16.43359375 C-57.15625 13.43359375 -57.15625 13.43359375 -53.96875 11.49609375 C-50.11810288 9.65417771 -46.22145903 8.61912453 -42.09375 7.55859375 C-36.77456166 6.12693987 -33.65447529 4.64158253 -29.7734375 0.828125 C-21.77383922 -6.07007932 -8.4345278 -5.39381941 0 0 Z " fill="#E03B30" transform="translate(149.15625,3.56640625)"/>
</svg>
