<?xml version="1.0" encoding="UTF-8"?>
<!-- Generator: visioncortex VTracer 0.6.4 -->
<svg version="1.1" xmlns="http://www.w3.org/2000/svg" width="512" height="512">
<path d="M0 0 C1.76447818 0.01422731 3.52896469 0.02744845 5.29345703 0.03979492 C9.33545745 0.07204389 13.37713923 0.11649652 17.41894531 0.16748047 C22.53804988 0.23064431 27.6570212 0.27686215 32.77636719 0.31298828 C94.68942914 0.75598923 94.68942914 0.75598923 121.8125 2.5625 C122.65995789 2.61540192 123.50741577 2.66830383 124.3805542 2.72280884 C154.74801693 4.68521428 179.59662055 14.50305907 204.80712891 31.21630859 C211.81907269 35.85874586 218.97990992 40.20809052 226.22973633 44.46801758 C227.41925903 45.17027466 227.41925903 45.17027466 228.6328125 45.88671875 C229.33293457 46.29623779 230.03305664 46.70575684 230.75439453 47.12768555 C232.5 48.25 232.5 48.25 234.5 50.25 C236.72566743 50.40010987 238.95695761 50.47155525 241.1875 50.5 C246.75181791 50.84206872 250.30607613 51.28438438 254.234375 55.3515625 C256.47814983 58.71722474 257.58692702 62.33683007 258.5 66.25 C258.83 65.5075 259.16 64.765 259.5 64 C262.21659626 60.26468014 265.17438427 58.73718027 269.5 57.25 C274.95786897 56.57973539 278.72035731 57.55601957 283.5 60.25 C287.43708862 63.99244604 290.22757227 67.27562508 290.73828125 72.8515625 C290.9419926 81.15011967 290.03442406 87.22318481 284.453125 93.58203125 C282.52001858 95.53913013 280.55367421 97.42063487 278.5 99.25 C284.37297087 101.72282984 289.18211801 103.54292512 295.57421875 101.62890625 C300.29816231 99.66423472 302.86157399 97.30932959 304.90234375 92.609375 C305.83223791 88.93842026 305.6388762 85.4220587 305.34765625 81.66796875 C305.5 79.25 305.5 79.25 306.80859375 77.453125 C309.44339198 75.57894982 311.36702138 75.79310729 314.5 76.25 C317.04035091 78.65885039 317.48559623 80.13736511 317.93359375 83.640625 C317.94104015 90.99767239 317.92403833 97.06867816 313.5 103.25 C312.943125 104.136875 312.38625 105.02375 311.8125 105.9375 C305.17142536 112.57857464 297.55700884 114.55480693 288.40405273 114.56469727 C280.21161203 114.39874707 274.4385702 112.29967263 268.5625 106.625 C264.0647326 102.32917318 259.47867914 101.96473709 253.5 101.25 C252.51 100.92 251.52 100.59 250.5 100.25 C250.52320313 101.42046875 250.54640625 102.5909375 250.5703125 103.796875 C250.54070098 126.28189106 240.90862331 149.09996953 228.375 167.3125 C226.30764306 170.48788351 225.00919469 172.60549627 225.3125 176.4375 C226.43520148 180.04196264 227.86684803 183.01005672 229.6328125 186.31640625 C231.64028482 190.79252695 230.76819677 194.88150426 229.1875 199.3125 C228.21863105 201.73928603 227.21309524 203.7069224 225.8125 205.9375 C222.02061805 215.50748778 224.89187111 224.7122208 228.40625 233.83984375 C229.48621355 237.20701583 229.71411072 239.74393692 229.5 243.25 C228.5925 243.683125 227.685 244.11625 226.75 244.5625 C223.58912886 246.08470994 223.58912886 246.08470994 221.375 247.875 C217.37751963 250.8064856 213.06337006 250.35706824 208.25 250.3125 C206.98671875 250.30347656 205.7234375 250.29445313 204.421875 250.28515625 C203.45765625 250.27355469 202.4934375 250.26195312 201.5 250.25 C200.75 248.6875 200.75 248.6875 200.5 246.25 C201.44746094 244.73019531 201.44746094 244.73019531 202.4140625 243.1796875 C205.34897655 238.43478339 205.01513117 233.8106145 204.875 228.375 C204.87371094 227.43269531 204.87242187 226.49039063 204.87109375 225.51953125 C204.76183935 216.74276081 204.01620324 209.39973385 198.5625 202.25 C197.87285156 201.321875 197.18320312 200.39375 196.47265625 199.4375 C194.61277809 197.01384379 194.61277809 197.01384379 191.5 196.25 C191.31824219 196.93707031 191.13648438 197.62414062 190.94921875 198.33203125 C190.69785156 199.23308594 190.44648438 200.13414062 190.1875 201.0625 C189.94386719 201.95582031 189.70023437 202.84914063 189.44921875 203.76953125 C188.45473765 206.36827815 187.69094402 207.56992514 185.5 209.25 C184.283125 209.62125 183.06625 209.9925 181.8125 210.375 C174.489231 212.97314507 170.11769713 219.6753512 166.625 226.3125 C163.33354774 233.46975189 162.18633848 240.44741523 161.5 248.25 C160.30375 248.683125 159.1075 249.11625 157.875 249.5625 C155.23463861 250.53356111 153.01914796 251.52623415 150.5625 252.9375 C143.66914934 255.89179314 136.51278615 254.10681335 129.5 252.25 C129.81453125 251.65574219 130.1290625 251.06148437 130.453125 250.44921875 C132.68235963 246.13175529 134.65733669 241.94799103 136.125 237.3125 C138.97606699 229.02174034 143.91953882 221.62485404 148.44018555 214.16015625 C153.63980419 204.78862521 150.09018509 190.38742994 148.5 180.25 C133.9092545 174.25737238 117.90607285 175.8681939 102.85546875 179.27734375 C82.07759682 183.97013273 62.39394423 182.34645559 41.45117188 179.67382812 C20.92651223 176.70751994 20.92651223 176.70751994 2.4375 184.1875 C1.76847656 184.7134375 1.09945312 185.239375 0.41015625 185.78125 C-1.5 187.25 -1.5 187.25 -4.625 189.1875 C-7.65223575 191.3592126 -9.59375447 193.64286267 -11.9140625 196.515625 C-13.57843515 198.33577637 -15.25976756 199.58018304 -17.3125 200.9375 C-20.60117599 203.32340219 -20.90285951 203.56634115 -21.5 207.25 C-20.71625 207.848125 -19.9325 208.44625 -19.125 209.0625 C-16.5 211.25 -16.5 211.25 -14.5 214.25 C-13.345 214.70375 -12.19 215.1575 -11 215.625 C-7.5 217.25 -7.5 217.25 -6.0625 219.9375 C-5.876875 220.700625 -5.69125 221.46375 -5.5 222.25 C-6.82 222.58 -8.14 222.91 -9.5 223.25 C-8.84 224.219375 -8.18 225.18875 -7.5 226.1875 C-5.07103143 230.41666159 -4.70187118 234.46122709 -5.5 239.25 C-6.16 240.24 -6.82 241.23 -7.5 242.25 C-11.59632076 241.05107685 -15.04942192 239.44618044 -18.70703125 237.25 C-20.74955314 236.05954871 -20.74955314 236.05954871 -24.125 234.8125 C-27.83027924 233.09709294 -29.77650291 231.26018099 -32.5 228.25 C-33.325 227.54875 -34.15 226.8475 -35 226.125 C-38.08559829 222.57656197 -39.61179861 218.90268612 -41.38671875 214.578125 C-42.276079 212.10613238 -42.276079 212.10613238 -44.5 211.25 C-44.561875 212.03375 -44.62375 212.8175 -44.6875 213.625 C-45.4142665 216.86749669 -46.14778811 218.51490745 -47.75 221.3125 C-51.04776292 227.52567652 -52.32771081 234.20223312 -53.79980469 241.02563477 C-53.99348633 241.91307373 -54.18716797 242.8005127 -54.38671875 243.71484375 C-54.55389404 244.515271 -54.72106934 245.31569824 -54.89331055 246.14038086 C-55.5 248.25 -55.5 248.25 -57.5 251.25 C-59.55859375 251.9453125 -59.55859375 251.9453125 -61.9375 252.375 C-64.57700295 252.87072214 -66.94084408 253.39694803 -69.5 254.25 C-71.85261357 254.34511161 -74.20796967 254.37986976 -76.5625 254.375 C-77.81160156 254.37757813 -79.06070313 254.38015625 -80.34765625 254.3828125 C-83.5 254.25 -83.5 254.25 -85.5 253.25 C-83.03145607 246.68671496 -79.61171069 240.562826 -74.875 235.375 C-66.64232041 224.54252686 -67.39866045 210.23409031 -68.5 197.25 C-69.0322045 194.19285425 -69.72532431 191.25884036 -70.5 188.25 C-71.593125 188.353125 -72.68625 188.45625 -73.8125 188.5625 C-77.83762814 188.60539657 -80.53766351 187.46399221 -84.125 185.6875 C-88.18450106 183.69411276 -88.18450106 183.69411276 -92.625 183.25 C-93.57375 183.58 -94.5225 183.91 -95.5 184.25 C-96.99945385 184.75163547 -98.49950224 185.25149576 -100 185.75 C-100.7115625 186.0078125 -101.423125 186.265625 -102.15625 186.53125 C-115.46752526 190.61337441 -130.53013267 188.57328911 -143.5 184.25 C-144.97321055 184.20298264 -146.44863533 184.21171652 -147.921875 184.2578125 C-148.78296875 184.27457031 -149.6440625 184.29132813 -150.53125 184.30859375 C-152.32834368 184.35248828 -154.12526075 184.40443128 -155.921875 184.46484375 C-161.59501746 184.55770769 -165.50119153 184.0109313 -170.5 181.25 C-171.9375 179.0625 -171.9375 179.0625 -172.5 177.25 C-171.84 176.26 -171.18 175.27 -170.5 174.25 C-173.43520805 172.29319464 -175.73511643 171.19022464 -179.1875 170.3125 C-182.5 169.25 -182.5 169.25 -183.671875 167.5703125 C-184.70055295 164.68807333 -184.89096047 162.11736357 -185.0625 159.0625 C-185.3974244 153.76351754 -185.87451083 148.52198017 -186.5 143.25 C-185.89671875 143.20101562 -185.2934375 143.15203125 -184.671875 143.1015625 C-183.47304687 142.98941406 -183.47304687 142.98941406 -182.25 142.875 C-181.06664062 142.77058594 -181.06664062 142.77058594 -179.859375 142.6640625 C-176.39983417 142.05692454 -174.17220424 141.15601441 -172.0625 138.3125 C-170.19514192 135.84758733 -168.15365841 134.78632855 -165.5 133.25 C-161.83268481 125.91536962 -164.79749473 111.90897033 -166.75390625 104.12548828 C-167.43139046 102.00837851 -167.43139046 102.00837851 -169.75 100.27734375 C-172.33142403 99.32851676 -174.8008265 98.75419344 -177.5 98.25 C-182.65503742 95.01311604 -185.90972411 90.06702164 -189.5 85.25 C-190.01433594 84.62480469 -190.52867187 83.99960938 -191.05859375 83.35546875 C-194.34174892 79.23524852 -195.03261474 76.46962445 -194.5 71.25 C-193.51 71.25 -192.52 71.25 -191.5 71.25 C-191.54125 70.13625 -191.5825 69.0225 -191.625 67.875 C-191.5 64.25 -191.5 64.25 -189.5 62.25 C-186.49117184 61.83278892 -185.06836112 61.82049315 -182.61328125 63.67578125 C-182.01902344 64.29839844 -181.42476562 64.92101562 -180.8125 65.5625 C-176.57082964 69.52299903 -172.26949561 71.49704788 -166.5 72.25 C-161.8700175 71.9461574 -159.91111659 70.09354003 -156.6875 66.875 C-142.15099186 53.19817782 -124.25787222 43.94733036 -106.47070312 35.22363281 C-104.03903654 34.02225938 -101.62463951 32.78762822 -99.20874023 31.55493164 C-81.5796322 22.61480749 -63.70481081 13.85569367 -45.125 7.0625 C-44.18342041 6.7126001 -43.24184082 6.3627002 -42.27172852 6.00219727 C-28.24753366 1.07186411 -14.73146199 -0.20502456 0 0 Z M256.5 68.25 C257.5 71.25 257.5 71.25 257.5 71.25 Z M270.5 69.25 C267.34714988 74.04233218 267.34144101 77.41273501 267.98046875 82.8828125 C268.50544885 85.2748271 269.30785029 87.12081081 270.5 89.25 C275.66373133 86.38126037 277.77101551 84.14888826 279.5 78.25 C279.3747129 74.99253533 279.05493501 73.08240252 277.25 70.375 C274.91786614 68.87577109 273.21628175 69.02976094 270.5 69.25 Z M250.5 75.25 C249.51 75.745 249.51 75.745 248.5 76.25 C248.53383629 81.45078342 248.53383629 81.45078342 250.83203125 85.89453125 C253.78718667 88.48187558 253.78718667 88.48187558 257.5 89.25 C257.17 83.31 256.84 77.37 256.5 71.25 C254.33648013 71.25 252.10770849 73.95599073 250.5 75.25 Z " fill="#E03B30" transform="translate(194.5,128.75)"/>
</svg>
