<?xml version="1.0" encoding="UTF-8" standalone="no"?>
<!-- Generator: Adobe Illustrator 16.0.0, SVG Export Plug-In . SVG Version: 6.00 Build 0)  -->

<svg
   xmlns:dc="http://purl.org/dc/elements/1.1/"
   xmlns:cc="http://creativecommons.org/ns#"
   xmlns:rdf="http://www.w3.org/1999/02/22-rdf-syntax-ns#"
   xmlns:svg="http://www.w3.org/2000/svg"
   xmlns="http://www.w3.org/2000/svg"
   xmlns:xlink="http://www.w3.org/1999/xlink"
   xmlns:sodipodi="http://sodipodi.sourceforge.net/DTD/sodipodi-0.dtd"
   xmlns:inkscape="http://www.inkscape.org/namespaces/inkscape"
   version="1.1"
   id="Layer_1"
   x="0px"
   y="0px"
   width="102px"
   height="65.002px"
   viewBox="0 0 102 65.002"
   enable-background="new 0 0 102 65.002"
   xml:space="preserve"
   inkscape:version="0.91 r13725"
   sodipodi:docname="stats-pigs-edited-new2.svg"><metadata
   id="metadata3371"><rdf:RDF><cc:Work
       rdf:about=""><dc:format>image/svg+xml</dc:format><dc:type
         rdf:resource="http://purl.org/dc/dcmitype/StillImage" /><dc:title></dc:title></cc:Work></rdf:RDF></metadata><defs
   id="defs3369"><inkscape:path-effect
     effect="spiro"
     id="path-effect4300"
     is_visible="true" /><inkscape:path-effect
     effect="spiro"
     id="path-effect4296"
     is_visible="true" /><inkscape:path-effect
     effect="spiro"
     id="path-effect4292"
     is_visible="true" /><inkscape:path-effect
     effect="spiro"
     id="path-effect4288"
     is_visible="true" /><inkscape:path-effect
     effect="spiro"
     id="path-effect3484"
     is_visible="true" /><inkscape:path-effect
     effect="spiro"
     id="path-effect3480"
     is_visible="true" /><inkscape:path-effect
     effect="spiro"
     id="path-effect3411"
     is_visible="true" /><inkscape:path-effect
     effect="spiro"
     id="path-effect3407"
     is_visible="true" /><inkscape:path-effect
     effect="spiro"
     id="path-effect3403"
     is_visible="true" /><inkscape:path-effect
     effect="spiro"
     id="path-effect3399"
     is_visible="true" /><inkscape:path-effect
     effect="spiro"
     id="path-effect3395"
     is_visible="true" /><inkscape:path-effect
     effect="spiro"
     id="path-effect3391"
     is_visible="true" /><inkscape:path-effect
     effect="spiro"
     id="path-effect3379"
     is_visible="true" /><inkscape:path-effect
     effect="spiro"
     id="path-effect3375"
     is_visible="true" /></defs><sodipodi:namedview
   pagecolor="#ffffff"
   bordercolor="#666666"
   borderopacity="1"
   objecttolerance="10"
   gridtolerance="10"
   guidetolerance="10"
   inkscape:pageopacity="0"
   inkscape:pageshadow="2"
   inkscape:window-width="1280"
   inkscape:window-height="657"
   id="namedview3367"
   showgrid="false"
   inkscape:object-paths="true"
   inkscape:zoom="32"
   inkscape:cx="6.9960988"
   inkscape:cy="32.103206"
   inkscape:window-x="-8"
   inkscape:window-y="-8"
   inkscape:window-maximized="1"
   inkscape:current-layer="Layer_1" />
<g
   id="g3337"
   transform="translate(-0.26223903,-0.50063816)">
	<defs
   id="defs3339">
		<rect
   id="SVGID_1_"
   width="102"
   height="65.001999"
   x="0"
   y="0" />
	</defs>
	<clipPath
   id="SVGID_2_">
		<use
   xlink:href="#SVGID_1_"
   overflow="visible"
   id="use3343"
   style="overflow:visible"
   x="0"
   y="0"
   width="100%"
   height="100%" />
	</clipPath>
	<g
   clip-path="url(#SVGID_2_)"
   id="g3345">
		<defs
   id="defs3347">
			<rect
   id="SVGID_3_"
   width="102"
   height="65.001999"
   x="0"
   y="0" />
		</defs>
		<clipPath
   id="SVGID_4_">
			<use
   xlink:href="#SVGID_3_"
   overflow="visible"
   id="use3351"
   style="overflow:visible"
   x="0"
   y="0"
   width="100%"
   height="100%" />
		</clipPath>
		<g
   clip-path="url(#SVGID_4_)"
   id="g3353"
   style="opacity:0">
			<g
   id="g3355">
				<defs
   id="defs3357">
					<rect
   id="SVGID_5_"
   x="0.99699998"
   y="0.991"
   width="100.002"
   height="63.000999" />
				</defs>
				<clipPath
   id="SVGID_6_">
					<use
   xlink:href="#SVGID_5_"
   overflow="visible"
   id="use3361"
   style="overflow:visible"
   x="0"
   y="0"
   width="100%"
   height="100%" />
				</clipPath>
				<path
   clip-path="url(#SVGID_6_)"
   d="m 100.77,26.148 c -1.239,5.321 -2.14,5.321 -2.521,5.321 -0.043,-0.002 -0.086,-0.007 -0.129,-0.015 -5.065,1.742 -10.313,2.901 -15.641,3.454 -1.935,1.249 -3.794,2.611 -5.569,4.078 -0.971,0.76 -1.92,1.5 -2.83,2.183 -0.65,1.22 -0.37,2.424 0.04,4.076 0.462,1.671 0.705,3.396 0.72,5.13 -0.01,2.969 1.11,5.807 2.1,8.307 0.181,0.44 0.351,0.87 0.511,1.29 0.18,0.427 0.387,0.841 0.62,1.24 0.428,0.673 0.748,1.408 0.949,2.18 0.029,0.149 -0.011,0.305 -0.109,0.42 -0.101,0.116 -0.247,0.183 -0.4,0.181 l -5.47,0 c -0.163,10e-4 -0.318,-0.072 -0.42,-0.2 -0.49,-0.601 -0.916,-1.251 -1.271,-1.94 -0.589,-1.731 -1.548,-3.315 -2.81,-4.64 -0.544,-0.665 -0.736,-1.549 -0.521,-2.38 0.087,-0.704 0.07,-1.417 -0.05,-2.116 -0.332,-0.962 -0.729,-1.9 -1.19,-2.808 -0.126,0.513 -0.281,1.019 -0.459,1.516 -0.924,2.76 -1.279,5.678 -1.041,8.578 l 0.021,0.57 c 0.042,0.383 0.143,0.758 0.3,1.109 0.277,0.589 0.392,1.242 0.33,1.891 -0.046,0.244 -0.261,0.421 -0.51,0.42 l -5.47,0 c -0.148,10e-4 -0.29,-0.061 -0.391,-0.17 -0.494,-0.459 -0.834,-1.06 -0.97,-1.721 0.147,-1.49 -0.123,-2.993 -0.78,-4.34 -0.47,-0.74 -0.109,-1.55 0.261,-2.4 0.315,-0.658 0.544,-1.356 0.679,-2.074 0.153,-2.729 -0.075,-5.466 -0.679,-8.131 -1.633,0.01 -3.262,0.12 -4.881,0.332 -3.35,0.332 -7.94,0.787 -12.67,0.787 -3.688,0.038 -7.37,-0.325 -10.979,-1.084 -0.453,1.424 -0.764,2.889 -0.931,4.372 -0.134,1.115 -0.352,2.218 -0.65,3.301 -0.12,0.411 0.71,2.3 1.31,3.675 0.49,1.109 1.05,2.37 1.46,3.55 0.18,0.5 0.38,0.93 0.561,1.33 0.333,0.63 0.557,1.313 0.659,2.02 0.009,0.144 -0.041,0.285 -0.14,0.391 -0.103,0.103 -0.244,0.16 -0.39,0.16 l -5.54,0 c -0.174,-0.003 -0.338,-0.089 -0.44,-0.23 -0.478,-0.655 -0.853,-1.381 -1.109,-2.15 -0.151,-1.447 -0.477,-2.871 -0.971,-4.239 -0.1,-0.32 -0.199,-0.63 -0.3,-0.96 -0.546,-2.036 -1.311,-4.008 -2.28,-5.88 -0.098,-0.12 -0.176,-0.255 -0.23,-0.4 0,0.012 -0.009,0.025 -0.009,0.037 -0.691,1.5 -1.291,2.791 -1.75,3.577 -0.271,0.45 -0.011,2.126 0.219,3.605 0.15,1 0.32,2.13 0.42,3.25 0.037,0.453 0.132,0.9 0.28,1.33 0.207,0.517 0.279,1.078 0.21,1.63 -0.043,0.252 -0.264,0.435 -0.52,0.431 l -5.54,0 c -0.176,0.003 -0.342,-0.083 -0.44,-0.23 -0.44,-0.547 -0.708,-1.211 -0.77,-1.91 0.325,-1.652 0.456,-3.337 0.391,-5.02 0.001,-1.927 -0.234,-3.846 -0.701,-5.714 -0.36,-0.55 -0.04,-1.332 0.37,-2.322 0.366,-0.737 0.593,-1.536 0.67,-2.355 -0.396,-0.803 -0.861,-1.57 -1.39,-2.293 -1.67,-2.51 -4.09,-6.186 -4.81,-9.49 -0.123,0.2 -0.263,0.39 -0.42,0.565 -0.674,0.731 -1.625,1.146 -2.62,1.141 C 2.49,36.447 1.085,35.177 1.002,33.529 1.001,33.49 1,33.455 1,33.42 0.971,32.747 1.2,32.087 1.64,31.577 c 0.384,-0.416 0.924,-0.655 1.49,-0.658 1.11,0.013 2,0.923 1.987,2.033 0,0.048 -0.003,0.096 -0.007,0.144 0,0.287 -0.233,0.521 -0.52,0.521 -0.287,0 -0.52,-0.233 -0.52,-0.521 C 4.174,32.579 3.839,32.075 3.323,31.971 2.99,31.904 2.646,32.019 2.42,32.273 2.155,32.594 2.022,33.004 2.05,33.42 c 0.018,1.074 0.904,1.931 1.979,1.913 0.037,-10e-4 0.074,-0.003 0.111,-0.005 0.703,0.003 1.375,-0.29 1.85,-0.809 0.651,-0.782 0.979,-1.784 0.92,-2.8 0,-0.022 0.01,-0.04 0.01,-0.062 0.078,-4.301 1.655,-8.439 4.46,-11.7 2.97,-3.379 8.31,-5.741 14.64,-6.48 5.833,-0.552 11.693,-0.754 17.55,-0.605 l 3.73,0.007 c 5.306,-0.043 10.603,-0.461 15.85,-1.253 1.141,-0.153 2.19,-0.29 3.22,-0.409 C 66.023,10.472 65.774,9.686 65.631,8.877 65.24,6.552 65.561,3.296 66.661,2.343 67.28,1.799 68.6,1.888 69.99,2.293 70.122,1.944 70.331,1.629 70.6,1.372 71.82,0.3 75.73,1.682 77.661,3.1 c 1.239,0.91 2.06,2.633 2.85,4.3 0.358,0.825 0.783,1.62 1.27,2.376 4.54,1.4 8.53,5.107 10.891,7.307 0.528,0.52 1.086,1.009 1.67,1.465 l 0.97,0.668 c 0.97,0.764 2.035,1.396 3.17,1.881 0.446,0.075 0.901,0.082 1.351,0.021 0.283,-0.035 0.542,0.165 0.58,0.448 l 0,0.062 c 0.707,0.876 0.707,3.032 0.357,4.52"
   id="path3363"
   inkscape:connector-curvature="0"
   style="fill:#4c4c4c" />
			</g>
		</g>
		<path
   clip-path="url(#SVGID_4_)"
   d="m 100.77,26.148 c -1.239,5.321 -2.14,5.321 -2.521,5.321 -0.043,-0.002 -0.086,-0.007 -0.129,-0.015 -5.065,1.742 -10.313,2.901 -15.641,3.454 -1.935,1.249 -3.794,2.611 -5.569,4.078 -0.971,0.76 -1.92,1.5 -2.83,2.183 -0.65,1.22 -0.37,2.424 0.04,4.076 0.462,1.671 0.705,3.396 0.72,5.13 -0.01,2.969 1.11,5.807 2.1,8.307 0.181,0.44 0.351,0.87 0.511,1.29 0.18,0.427 0.387,0.841 0.62,1.24 0.428,0.673 0.748,1.408 0.949,2.18 0.029,0.149 -0.011,0.305 -0.109,0.42 -0.101,0.116 -0.247,0.183 -0.4,0.181 l -5.47,0 c -0.163,10e-4 -0.318,-0.072 -0.42,-0.2 -0.49,-0.601 -0.916,-1.251 -1.271,-1.94 -0.589,-1.731 -1.548,-3.315 -2.81,-4.64 -0.544,-0.665 -0.736,-1.549 -0.521,-2.38 0.087,-0.704 0.07,-1.417 -0.05,-2.116 -0.332,-0.962 -0.729,-1.9 -1.19,-2.808 -0.126,0.513 -0.281,1.019 -0.459,1.516 -0.924,2.76 -1.279,5.678 -1.041,8.578 l 0.021,0.57 c 0.042,0.383 0.143,0.758 0.3,1.109 0.277,0.589 0.392,1.242 0.33,1.891 -0.046,0.244 -0.261,0.421 -0.51,0.42 l -5.47,0 c -0.148,10e-4 -0.29,-0.061 -0.391,-0.17 -0.494,-0.459 -0.834,-1.06 -0.97,-1.721 0.147,-1.49 -0.123,-2.993 -0.78,-4.34 -0.47,-0.74 -0.109,-1.55 0.261,-2.4 0.315,-0.658 0.544,-1.356 0.679,-2.074 0.153,-2.729 -0.075,-5.466 -0.679,-8.131 -1.633,0.01 -3.262,0.12 -4.881,0.332 -3.35,0.332 -7.94,0.787 -12.67,0.787 -3.688,0.038 -7.37,-0.325 -10.979,-1.084 -0.453,1.424 -0.764,2.889 -0.931,4.372 -0.134,1.115 -0.352,2.218 -0.65,3.301 -0.12,0.411 0.71,2.3 1.31,3.675 0.49,1.109 1.05,2.37 1.46,3.55 0.18,0.5 0.38,0.93 0.561,1.33 0.333,0.63 0.557,1.313 0.659,2.02 0.009,0.144 -0.041,0.285 -0.14,0.391 -0.103,0.103 -0.244,0.16 -0.39,0.16 l -5.54,0 c -0.174,-0.003 -0.338,-0.089 -0.44,-0.23 -0.478,-0.655 -0.853,-1.381 -1.109,-2.15 -0.151,-1.447 -0.477,-2.871 -0.971,-4.239 -0.1,-0.32 -0.199,-0.63 -0.3,-0.96 -0.546,-2.036 -1.311,-4.008 -2.28,-5.88 -0.098,-0.12 -0.176,-0.255 -0.23,-0.4 0,0.012 -0.009,0.025 -0.009,0.037 -0.691,1.5 -1.291,2.791 -1.75,3.577 -0.271,0.45 -0.011,2.126 0.219,3.605 0.15,1 0.32,2.13 0.42,3.25 0.037,0.453 0.132,0.9 0.28,1.33 0.207,0.517 0.279,1.078 0.21,1.63 -0.043,0.252 -0.264,0.435 -0.52,0.431 l -5.54,0 c -0.176,0.003 -0.342,-0.083 -0.44,-0.23 -0.44,-0.547 -0.708,-1.211 -0.77,-1.91 0.325,-1.652 0.456,-3.337 0.391,-5.02 0.001,-1.927 -0.234,-3.846 -0.701,-5.714 -0.36,-0.55 -0.04,-1.332 0.37,-2.322 0.366,-0.737 0.593,-1.536 0.67,-2.355 -0.396,-0.803 -0.861,-1.57 -1.39,-2.293 -1.67,-2.51 -4.09,-6.186 -4.81,-9.49 C 6.8239279,33.195142 6.92,31.657 6.92,31.657 c 0.078,-4.301 1.655,-8.439 4.46,-11.7 2.97,-3.379 8.31,-5.741 14.64,-6.48 5.833,-0.552 11.693,-0.754 17.55,-0.605 l 3.73,0.007 c 5.306,-0.043 10.603,-0.461 15.85,-1.253 1.141,-0.153 2.19,-0.29 3.22,-0.409 C 66.023,10.472 65.774,9.686 65.631,8.877 65.24,6.552 65.561,3.296 66.661,2.343 67.28,1.799 68.6,1.888 69.99,2.293 70.122,1.944 70.331,1.629 70.6,1.372 71.82,0.3 75.73,1.682 77.661,3.1 c 1.239,0.91 2.06,2.633 2.85,4.3 0.358,0.825 0.783,1.62 1.27,2.376 4.54,1.4 8.53,5.107 10.891,7.307 0.528,0.52 1.086,1.009 1.67,1.465 l 0.97,0.668 c 0.97,0.764 2.035,1.396 3.17,1.881 0.446,0.075 0.901,0.082 1.351,0.021 0.283,-0.035 0.542,0.165 0.58,0.448 l 0,0.062 c 0.707,0.876 0.707,3.032 0.357,4.52 z"
   id="path3365"
   inkscape:connector-curvature="0"
   style="fill:none;stroke:#4c4c4c;stroke-linejoin:round"
   transform="translate(0.10179643,0.70756866)"
   sodipodi:nodetypes="ccccccccccccccccccccccccccccccccccccccccccccsccccccccccccccccccccccccccccccccccccccccccccc" />
	</g>
</g>
<path
   style="fill:none;fill-rule:evenodd;stroke:#000000;stroke-width:1px;stroke-linecap:butt;stroke-linejoin:miter;stroke-opacity:1"
   d="m 3.7792623,41.030819 0,0"
   id="path4294"
   inkscape:path-effect="#path-effect4296"
   inkscape:original-d="m 3.7792623,41.030819 0,0"
   inkscape:connector-curvature="0" /><path
   style="fill:none;fill-rule:evenodd;stroke:#4c4c4c;stroke-width:1px;stroke-linecap:butt;stroke-linejoin:miter;stroke-opacity:1"
   d="m 6.954626,34.173132 c -0.2797274,0.420201 -0.6490565,0.780439 -1.076097,1.04961 -0.4904133,0.309115 -1.0527796,0.49638 -1.6268184,0.577232 -0.3894229,0.05485 -0.7885953,0.06143 -1.1739362,-0.01712 C 2.6924334,35.704295 2.3207365,35.537632 2.028685,35.27426 1.7719828,35.042766 1.5819629,34.740732 1.4707228,34.413454 1.3594828,34.086176 1.3259259,33.734366 1.3588751,33.390273 1.3827603,33.140837 1.4417124,32.893339 1.5489543,32.66687 1.6561961,32.440402 1.812931,32.23532 2.014054,32.08586 2.205312,31.943731 2.4336469,31.8543 2.669028,31.817206 c 0.2353812,-0.03709 0.4776078,-0.02271 0.7098611,0.03057 0.6800322,0.155998 1.2694149,0.663129 1.5251179,1.312279"
   id="path4298"
   inkscape:path-effect="#path-effect4300"
   inkscape:original-d="m 6.954626,34.173132 c 0,0 -0.6507511,0.784742 -1.076097,1.04961 C 5.3900915,35.526897 4.8262572,35.768704 4.2517106,35.799974 3.4913886,35.841355 2.5957341,35.782454 2.028685,35.27426 1.5323398,34.829435 1.3176189,34.055499 1.3588751,33.390273 1.3889931,32.904636 1.6463685,32.404541 2.014054,32.08586 2.4014809,31.750068 2.8954669,31.677014 3.3788891,31.847773 3.9263368,32.041147 4.904007,33.160052 4.904007,33.160052"
   inkscape:connector-curvature="0"
   sodipodi:nodetypes="cssaassc" /></svg>