<?xml version="1.0" encoding="UTF-8"?>
<!-- Generator: visioncortex VTracer 0.6.4 -->
<svg version="1.1" xmlns="http://www.w3.org/2000/svg" width="512" height="512">
<path d="M0 0 C10.37166165 -1.76789687 16.34151354 2.04674832 24.53125 7.71484375 C25.10423828 8.12855225 25.67722656 8.54226074 26.26757812 8.96850586 C30.01550193 11.20004167 34.3218437 11.32014098 38.578125 11.73046875 C41 12 41 12 43.234375 12.42578125 C51.86375283 13.94051246 58.7468881 9.96258208 66.015625 5.63671875 C69.9255235 4.3821647 73.26681306 5.66862728 76.88671875 7.3046875 C77.81097656 7.82289062 78.73523438 8.34109375 79.6875 8.875 C80.61949219 9.38804688 81.55148437 9.90109375 82.51171875 10.4296875 C85.52348547 12.33036288 87.51044591 13.81108292 88.875 17.125 C89.06190122 21.42372808 87.53213473 25.02683705 86 29 C86.60328125 29.44730469 87.2065625 29.89460938 87.828125 30.35546875 C88.62734375 30.96003906 89.4265625 31.56460938 90.25 32.1875 C91.03890625 32.77917969 91.8278125 33.37085938 92.640625 33.98046875 C97.70373914 38.31429327 99.80354625 42.66826447 101.75 48.9375 C104.54154344 57.35562078 108.35023459 64.45644996 113 72 C122.42719755 87.53366014 122.42719755 87.53366014 122 98 C121.34 98 120.68 98 120 98 C120.2475 98.845625 120.495 99.69125 120.75 100.5625 C121.26933844 107.7034035 115.62588662 112.89146366 111.29296875 118.08203125 C107.26354312 121.45247075 103.40590342 122.07445594 98.23828125 121.80078125 C96.94277344 121.63964844 95.64726562 121.47851562 94.3125 121.3125 C85.76048438 120.58445899 79.0724121 121.76943482 72.25830078 127.45263672 C64.26270751 134.23717614 64.26270751 134.23717614 59 143 C59.11335335 145.11559199 59.11335335 145.11559199 59.75 147.25 C59.94851563 148.04019531 60.14703125 148.83039063 60.3515625 149.64453125 C60.75307435 151.10303514 61.16290597 152.55931051 61.5859375 154.01171875 C63.37282842 160.39532182 64.45528418 166.89961197 61.5625 173.0625 C57.91685316 175.81896468 54.47619063 175.89479039 50 176 C48.24975054 180.70379544 47.95088917 184.46819712 48.125 189.5 C48.21894611 195.32465879 47.70431769 198.4725006 44 203 C41.859375 203.671875 41.859375 203.671875 40 204 C39.690625 205.7015625 39.690625 205.7015625 39.375 207.4375 C38.29852524 211.92544992 36.10734552 214.96693859 33.2421875 218.53125 C30.30907093 224.3605886 32.21904107 231.09482462 33.75 237.125 C33.92901855 237.86580811 34.10803711 238.60661621 34.29248047 239.36987305 C35.40822206 243.9093335 36.72109448 248.35272495 38.125 252.8125 C40.11601041 259.50882798 40.79949341 266.1346502 41.31689453 273.07348633 C41.67746259 277.71522375 42.43077905 281.58293361 44 286 C44.16015625 288.265625 44.16015625 288.265625 44.0625 290.25 C43.71424225 293.81353162 43.71424225 293.81353162 45 296 C46.57291594 308.54688929 46.16731382 321.12093954 44.5625 333.625 C44.42384521 334.72336182 44.28519043 335.82172363 44.14233398 336.95336914 C43.87722236 339.04237258 43.61170168 341.13132416 43.34570312 343.22021484 C41.79163277 355.27078353 41.79163277 355.27078353 47 365.9375 C47.72703125 366.81277344 48.4540625 367.68804687 49.203125 368.58984375 C50.95970157 370.94594754 51.62936895 372.11088644 51.75 375 C51 378 51 378 49.328125 379.66015625 C43.90131897 382.78330133 36.66107054 381.56816584 30.76171875 380.30859375 C24.22498174 378.32348556 19.11836612 375.5162054 14 371 C14.875 364.125 14.875 364.125 16 363 C17.05264344 356.5796216 17.19221045 350.24676339 17.1875 343.75 C17.18741943 342.69514404 17.18733887 341.64028809 17.18725586 340.5534668 C17.13400044 333.10275267 16.6595365 325.79385014 15.77319336 318.39868164 C15.25938347 314.03063716 14.92946975 309.73563325 14.85546875 305.3359375 C14.83540771 304.39258545 14.81534668 303.4492334 14.79467773 302.47729492 C14.76578243 300.67299619 14.7598353 298.86812081 14.78149414 297.0637207 C14.67428972 291.39966144 13.47784987 288.46719817 9.53637695 284.36767578 C6.81100661 281.94156349 4.08422117 280.41024585 0.6875 279.125 C-1.67360615 278.13662998 -3.5484198 277.06630471 -5.6875 275.6875 C-11.36857904 272.06447223 -17.31153955 268.57559682 -23.875 266.875 C-26.98089837 266.00534846 -28.5198037 264.96705224 -31 263 C-32.32377196 262.63051836 -33.65699955 262.29195662 -35 262 C-35.02916504 262.56807373 -35.05833008 263.13614746 -35.08837891 263.72143555 C-35.70547737 274.50757537 -36.45164357 283.61949456 -41.60546875 293.25 C-43.55350035 297.09149649 -44.22694292 300.783325 -45 305 C-45.33 305.33 -45.66 305.66 -46 306 C-46.45069569 309.21546754 -46.81615385 312.43028768 -47.16210938 315.65820312 C-47.64590669 319.8786464 -48.40608091 323.88221345 -49.48950195 327.98852539 C-50.36555547 331.44036897 -51.00045721 334.93272217 -51.625 338.4375 C-51.7576123 339.18032227 -51.89022461 339.92314453 -52.02685547 340.68847656 C-52.9094608 345.87506077 -53.17555251 350.73342471 -53 356 C-53.20858643 356.80872559 -53.41717285 357.61745117 -53.63208008 358.45068359 C-54.09461049 361.65555593 -53.41794629 362.79644153 -51.76171875 365.5390625 C-51.27123047 366.36664063 -50.78074219 367.19421875 -50.27539062 368.046875 C-49.75138672 368.89765625 -49.22738281 369.7484375 -48.6875 370.625 C-48.17509766 371.48351562 -47.66269531 372.34203125 -47.13476562 373.2265625 C-45.15348581 376.53300078 -43.13839627 379.79240559 -41 383 C-40.5625 386 -40.5625 386 -41 389 C-43.1875 391 -43.1875 391 -46 392 C-47.13308594 391.51273437 -47.13308594 391.51273437 -48.2890625 391.015625 C-51.6442349 389.75864399 -53.67384186 390.18507567 -57.1875 390.75 C-63.30243763 391.31658179 -66.76461879 390.45438911 -71.77734375 386.94140625 C-80.34366555 379.45904784 -85.30477043 369.55851579 -86.2265625 358.2109375 C-86.4056431 351.91055622 -85.50628415 346.76691318 -83.66015625 340.7734375 C-82.72647725 336.85088076 -82.90946671 333.14621277 -83.01953125 329.13671875 C-82.97919271 322.65834849 -82.64260272 315.46390407 -79 310 C-79.34444881 307.52733235 -79.34444881 307.52733235 -80 305 C-80 303.68 -80 302.36 -80 301 C-80.20625 300.154375 -80.4125 299.30875 -80.625 298.4375 C-81 296 -81 296 -79 293 C-79.33 292.34 -79.66 291.68 -80 291 C-80.15175549 289.40737934 -80.24900325 287.80935144 -80.31640625 286.2109375 C-80.35830078 285.26992188 -80.40019531 284.32890625 -80.44335938 283.359375 C-80.48267578 282.37453125 -80.52199219 281.3896875 -80.5625 280.375 C-80.60568359 279.38242187 -80.64886719 278.38984375 -80.69335938 277.3671875 C-80.79961069 274.91160162 -80.90164964 272.45591297 -81 270 C-81.47050781 270.34933594 -81.94101562 270.69867188 -82.42578125 271.05859375 C-83.04839844 271.51363281 -83.67101562 271.96867187 -84.3125 272.4375 C-85.23482422 273.11619141 -85.23482422 273.11619141 -86.17578125 273.80859375 C-91.75906217 277.45506202 -99.57541562 276.71976002 -106 276 C-114.9215696 273.71897743 -121.82751683 268.55715056 -129 263 C-131.05794104 261.49375138 -133.1203233 259.99354838 -135.1875 258.5 C-136.79166667 257.33333333 -138.39583333 256.16666667 -140 255 C-140.51046875 255.36351562 -141.0209375 255.72703125 -141.546875 256.1015625 C-151.76873274 263.16986838 -161.11700369 269.225858 -174 267 C-180.19510409 264.72180043 -183.6593212 260.53299927 -187 255 C-187 254.34 -187 253.68 -187 253 C-193.04064653 252.41591859 -193.04064653 252.41591859 -198.1875 255.375 C-199.115625 256.24125 -200.04375 257.1075 -201 258 C-205.15709693 260.29734304 -209.33839442 260.58802703 -214 260 C-216.78609509 259.17888509 -219.32145779 258.14794666 -222 257 C-222.99 260.96 -223.98 264.92 -225 269 C-225.66 269 -226.32 269 -227 269 C-226.938125 269.78375 -226.87625 270.5675 -226.8125 271.375 C-226.874375 272.24125 -226.93625 273.1075 -227 274 C-227.99 274.66 -228.98 275.32 -230 276 C-231.2188121 279.55672179 -231.2188121 279.55672179 -232 283 C-232.99 283 -233.98 283 -235 283 C-236.03789581 284.64333504 -237.03567924 286.31243867 -238 288 C-238.99 288.66 -239.98 289.32 -241 290 C-247.35038636 300.81917677 -243.35233243 313.40207823 -240.53027344 324.78344727 C-239.97864203 327.08927671 -239.50184515 329.40455275 -239.0234375 331.7265625 C-238.26321383 335.17672213 -237.21107496 338.07313491 -235.5 341.1875 C-231.787975 348.01174107 -230.54618908 354.28345607 -229.875 361.9375 C-229.7922583 362.86248291 -229.7095166 363.78746582 -229.62426758 364.74047852 C-227.73369975 387.19995804 -227.73369975 387.19995804 -232 394 C-235.32534294 395.13203164 -237.09591455 395.35687583 -240.375 394.0625 C-240.91125 393.711875 -241.4475 393.36125 -242 393 C-242.99 393.66 -243.98 394.32 -245 395 C-249.66422451 394.81466658 -251.94953602 392.62259467 -255.25 389.5 C-256.12140625 388.6853125 -256.9928125 387.870625 -257.890625 387.03125 C-260 385 -260 385 -261 384 C-260.938125 382.906875 -260.87625 381.81375 -260.8125 380.6875 C-260.74929438 368.88911849 -267.25844851 359.67152109 -274.6640625 351.06640625 C-276.38423511 348.40567142 -276.75660256 346.04976932 -277.3125 342.9375 C-278.76666455 336.13109628 -281.48909956 330.94288437 -285 325 C-286.75070278 321.70455947 -288.40168293 318.3717148 -290 315 C-290.33386719 314.32324219 -290.66773438 313.64648438 -291.01171875 312.94921875 C-293.43645374 307.47436464 -292.99103495 302.82680789 -292 297 C-292.99 296.67 -293.98 296.34 -295 296 C-297.34897972 292.62871357 -297.47752771 289.0592482 -297.8515625 285.046875 C-297.91532074 284.38665344 -297.97907898 283.72643188 -298.04476929 283.04620361 C-298.24566101 280.9480978 -298.4354791 278.84916039 -298.625 276.75 C-298.7596859 275.32284751 -298.89509463 273.89576304 -299.03125 272.46875 C-299.36254183 268.97991536 -299.68391394 265.49024892 -300 262 C-300.81839355 262.6199585 -301.63678711 263.23991699 -302.47998047 263.87866211 C-303.56731393 264.69914728 -304.65472012 265.51953608 -305.7421875 266.33984375 C-306.27996826 266.74763062 -306.81774902 267.15541748 -307.37182617 267.57556152 C-317.2284731 275 -317.2284731 275 -321 275 C-322.91895541 282.84186937 -324.50924576 290.67123638 -325.78637695 298.64233398 C-328.42493528 315.09419932 -331.380562 329.57671829 -340.1328125 343.9140625 C-342.05169349 346.96783137 -342.05169349 346.96783137 -343.53515625 350.23828125 C-344.97204225 352.94729032 -345.82526653 353.92149769 -348.3125 355.5625 C-353.5243532 359.91699207 -356.96541907 365.2464856 -358 372 C-356.5839523 377.5730059 -353.19976372 382.30660844 -350 387 C-348.61874982 389.76250036 -348.80920694 391.94731099 -349 395 C-351.36453193 397.36453193 -352.25869929 397.36652704 -355.5 397.6875 C-356.2940625 397.77386719 -357.088125 397.86023438 -357.90625 397.94921875 C-360 398 -360 398 -362 397 C-362.144375 397.639375 -362.28875 398.27875 -362.4375 398.9375 C-363 401 -363 401 -364 402 C-370.42737598 402.51978779 -376.64178581 402.98750823 -382 399 C-387.49980597 393.50019403 -390.13098992 389.81471263 -390.375 381.875 C-390.34353877 376.1931027 -389.36491736 372.88769003 -386.30078125 368.18359375 C-384.44384092 365.06638761 -383.63419549 361.8239191 -382.68359375 358.34375 C-382 356 -382 356 -380.4375 352.375 C-378.82959302 348.59991404 -377.94619646 344.98754223 -377 341 C-376.67 340.34 -376.34 339.68 -376 339 C-375.70685747 337.00314794 -375.44015844 335.00237719 -375.1875 333 C-374.57473684 328.73851076 -373.82135649 325.23827092 -371.9375 321.375 C-369.11991892 315.04066032 -369.36013652 308.30592141 -369.17578125 301.48828125 C-369.0652098 297.6009521 -368.6296962 293.84163499 -368 290 C-367.87625 289.175 -367.7525 288.35 -367.625 287.5 C-367 285 -367 285 -365.62109375 282.0234375 C-363.92760574 278.13730689 -363.04165484 274.19356169 -362.11157227 270.06884766 C-359.32760783 257.91055605 -355.08391872 248.2202429 -348 238 C-347.37867188 237.06542969 -346.75734375 236.13085938 -346.1171875 235.16796875 C-342.74120001 230.43373513 -339.0784936 227.30523057 -334.11328125 224.2890625 C-329.94413033 221.90674573 -329.94413033 221.90674573 -327.1875 218.1875 C-326.88595495 215.90220853 -326.88595495 215.90220853 -327.5625 213.3125 C-328.5799293 205.60910673 -325.23456342 198.7959017 -322.12109375 191.89453125 C-320.96820943 188.91792052 -320.41626388 186.15705749 -320 183 C-321.11375 182.7525 -322.2275 182.505 -323.375 182.25 C-327 181 -327 181 -328.5625 179.125 C-329.12297626 176.40268675 -328.30750644 175.37638052 -327 173 C-328.01320313 172.27296875 -328.01320313 172.27296875 -329.046875 171.53125 C-339.32805946 163.80550445 -339.32805946 163.80550445 -341 157 C-342.49123611 145.54603756 -339.24564886 137.73384359 -332.375 128.75 C-331.59898437 127.79609375 -330.82296875 126.8421875 -330.0234375 125.859375 C-327.48103108 122.26663079 -326.49081043 118.82258264 -325.359375 114.62109375 C-323.75926759 108.88737553 -322.02466212 106.25125196 -317 103 C-313.40823933 101.36028317 -310.74058335 100.95842839 -306.875 101.1875 C-302.90052757 101.44958626 -302.90052757 101.44958626 -300.8125 98.625 C-299.9153125 97.325625 -299.9153125 97.325625 -299 96 C-294.74567585 93.51831091 -290.79487554 93.76418645 -286 94 C-285.34 94.33 -284.68 94.66 -284 95 C-283.773125 94.278125 -283.54625 93.55625 -283.3125 92.8125 C-281.23096303 88.35206364 -278.04684244 85.69789496 -274 83 C-265.22402443 81.63775902 -257.63693439 83.43897621 -249.3125 86 C-236.92852938 90.08252295 -236.92852938 90.08252295 -224.6875 87.25 C-223.800625 86.5075 -222.91375 85.765 -222 85 C-217.52148648 81.59243537 -213.68757555 79.73064305 -208 80 C-203.30774879 80.97190942 -199.69791189 82.49367177 -195.8125 85.3125 C-194.884375 85.869375 -193.95625 86.42625 -193 87 C-190.08777172 86.28008262 -190.08777172 86.28008262 -187 85 C-181.54819606 84.05006447 -177.95621097 84.66730746 -173.375 87.8125 C-172.63378906 88.35390625 -171.89257812 88.8953125 -171.12890625 89.453125 C-168.08593749 91.66416285 -165.63885245 92.9701361 -162 94 C-158.86000624 92.97608899 -156.62478177 91.49482716 -154.046875 89.453125 C-148.67439736 85.39477858 -144.75248003 84.17757432 -137.99609375 84.5390625 C-130.81777186 85.64341971 -124.79480987 88.73014009 -119 93 C-116.45828796 91.82690214 -114.27116256 90.5091503 -111.9375 88.9375 C-107.448986 85.97699076 -103.29604435 85.24077686 -98 86 C-96.52039011 86.72916027 -95.06186513 87.50235264 -93.625 88.3125 C-90.74050692 89.73742969 -89.65461635 90.21785632 -86.55859375 89.1875 C-84.86911794 88.25683414 -83.19083964 87.30559598 -81.5234375 86.3359375 C-76.2576136 83.54814838 -71.4022476 83.36185866 -65.69140625 84.87890625 C-63.47135381 85.60212424 -61.26478613 86.36884854 -59.078125 87.1875 C-55.53393896 88.12302119 -53.48639566 88.12166768 -50 87 C-48.15056841 85.04068829 -48.15056841 85.04068829 -46.875 82.5625 C-44.9527539 79.17956406 -43.77973377 77.21820688 -40 76 C-36.765625 75.8046875 -36.765625 75.8046875 -33.25 75.875 C-32.07953125 75.89304687 -30.9090625 75.91109375 -29.703125 75.9296875 C-28.81109375 75.95289063 -27.9190625 75.97609375 -27 76 C-27.03480469 75.33613281 -27.06960938 74.67226562 -27.10546875 73.98828125 C-27.38998014 64.70779077 -27.38998014 64.70779077 -24 61 C-19.86664453 57.87768112 -15.38037561 55.70997086 -10.6875 53.5625 C-7.42677123 51.95460618 -6.15086678 51.21215641 -4 48.1875 C-3.22111996 45.70481986 -2.65439864 43.34804087 -2.125 40.8125 C-1 37 -1 37 1.5 35 C4 34 4 34 6 34 C5.75765625 33.39414063 5.5153125 32.78828125 5.265625 32.1640625 C4.55800778 30.39501945 3.85525046 28.62402796 3.15625 26.8515625 C2.421543 25.03961619 1.65406932 23.24035493 0.84375 21.4609375 C-1.75308511 15.6180585 -2.96644608 10.40551475 -2 4 C-0.9765625 1.7109375 -0.9765625 1.7109375 0 0 Z " fill="#E03B30" transform="translate(390,55)"/>
</svg>
