<svg xmlns="http://www.w3.org/2000/svg" viewBox="0 0 102.996 72.427"><defs><style>.a{fill:none;stroke:#4c4c4c;stroke-miterlimit:10;stroke-width:1px;}</style></defs><title>stats-sheep</title><path class="a" d="M9.108,71.27a.5.5,0,0,1-.364.157H1.5a.5.5,0,0,1-.447-.723c.9-1.814,2.608-9.324,3.828-15.8,0-.006.006-.011.007-.017C3.332,53.667,2.6,50.167,2.664,44.2c.037-4.5,1.26-16.208,4.656-21.641,3.889-6.234,11.433-9.4,22.424-9.4a135.259,135.259,0,0,1,14.729.869,62.737,62.737,0,0,0,10.6.492c7.426-.5,10.705-1.8,13.142-3.139a25.7,25.7,0,0,0,4.424-3.91c-.945-2.3-.72-2.679-.616-2.837a.633.633,0,0,1,.473-.255,10.692,10.692,0,0,1,2.721.565,13.927,13.927,0,0,1,3.363-2.49c3.329-1.5,10-2.452,13.732.292a7.814,7.814,0,0,1,3.2,4.99c.142.5.289,1.018.484,1.573,2.5,1.763,5.7,5.964,5.961,8.519.242,2.314-.781,7.063-3.11,7.571-1.806.389-4.471-.56-6.61-1.326l-.23-.082a65.479,65.479,0,0,1-3.789,11.362c-2.682,6.032-5.241,10.058-7.4,11.64a6.365,6.365,0,0,1-.654.407,10.043,10.043,0,0,1-.637,4.914c.063.88.117,1.7.169,2.464.489,7.259.654,9.7,3.764,15.923a.5.5,0,0,1-.447.724H76.1A.5.5,0,0,1,75.61,71a115.988,115.988,0,0,0-3.1-13.281c-.339-1.233-.689-2.507-1.047-3.848a6.33,6.33,0,0,1-1.759-3.8c-.194.015-.387.03-.571.039a8.425,8.425,0,0,1-1.826,2.7,35.119,35.119,0,0,0-.831,7.07l-.024.665A58.133,58.133,0,0,0,67.179,70.8a.5.5,0,0,1-.484.624h-7.11a.5.5,0,0,1-.5-.478c-.047-1.033.072-2.953.188-4.81.11-1.79.226-3.64.183-4.562A36.421,36.421,0,0,0,57.641,52.6a.49.49,0,0,1-.031-.143,6.31,6.31,0,0,1-1.586-2.5,49.176,49.176,0,0,1-15.633,3.8,41.358,41.358,0,0,1-11.529-.8c-.4-.082-.721-.148-.97-.183-.288-.041-.7-.072-1.171-.1a7.731,7.731,0,0,1-1.771,3.277,22.836,22.836,0,0,0-.856,5.515,36.736,36.736,0,0,0,2.134,9.244.5.5,0,0,1-.454.709h-6.28a.5.5,0,0,1-.5-.5,20.588,20.588,0,0,0-.438-2.329A37.873,37.873,0,0,1,17.484,61.6c0-2,.058-3.655.1-4.985l.018-.539a7.475,7.475,0,0,1-1.364-2.464c-.7.213-2.295.84-3.37,1.264l0,0h0l-.023.009c-.349.138-.642.252-.861.336a.486.486,0,0,1,0,.285C10.47,59.984,9.062,67.892,9.243,70.9A.5.5,0,0,1,9.108,71.27Z"/></svg>