<?xml version="1.0" encoding="UTF-8"?>
<!-- Generator: visioncortex VTracer 0.6.4 -->
<svg version="1.1" xmlns="http://www.w3.org/2000/svg" width="512" height="512">
<path d="M0 0 C10.96143697 9.63961663 10.96143697 9.63961663 12.65625 13.77734375 C12.65625 18.52664372 8.85907791 21.22945965 5.71875 24.43359375 C-21.40507523 50.65968312 -55.97405247 58.09269088 -92.55932617 57.51333618 C-117.26638233 56.96329988 -142.79620315 47.14329573 -161.7734375 31.30859375 C-162.55976563 30.65761719 -163.34609375 30.00664062 -164.15625 29.3359375 C-164.84332031 28.7378125 -165.53039062 28.1396875 -166.23828125 27.5234375 C-168.29919688 26.11931583 -168.29919688 26.11931583 -170.80859375 26.42578125 C-173.77392259 27.49037542 -175.65051574 28.91039179 -178.09375 30.8984375 C-192.30870784 41.52626504 -209.62691531 47.4841666 -227.34375 48.3359375 C-225.78156009 35.27911564 -215.43235191 24.32347835 -205.71875 16.1484375 C-204.935 15.5503125 -204.15125 14.9521875 -203.34375 14.3359375 C-203.98441406 13.7790625 -204.62507813 13.2221875 -205.28515625 12.6484375 C-214.87058573 4.19154592 -222.0586423 -3.92116362 -227.34375 -15.6640625 C-227.34375 -16.6540625 -227.34375 -17.6440625 -227.34375 -18.6640625 C-222.00506527 -18.85248667 -217.33767144 -18.23729219 -212.15625 -16.9765625 C-211.4122998 -16.79722168 -210.66834961 -16.61788086 -209.90185547 -16.43310547 C-196.99031176 -13.1850409 -184.34406041 -7.48371241 -174.1953125 1.234375 C-171.60768737 2.77384818 -170.32143071 2.86346219 -167.34375 2.3359375 C-165.08930763 0.75930133 -163.09749427 -0.80912584 -161.03125 -2.6015625 C-115.87175294 -39.69321906 -44.2067146 -37.2200212 0 0 Z M-32.90625 6.4609375 C-34.56113192 9.25695001 -34.56113192 9.25695001 -34.40625 12.3984375 C-33.04867996 16.15171937 -31.84925734 17.43077047 -28.34375 19.3359375 C-24.04087377 19.41142656 -22.09763717 18.99558878 -18.84375 16.1484375 C-17.09865196 13.40762868 -17.09865196 13.40762868 -17.34375 10.2109375 C-18.15260545 7.34146919 -18.15260545 7.34146919 -19.90625 5.4609375 C-24.65997685 3.26690972 -28.80673062 3.06133607 -32.90625 6.4609375 Z " fill="#E03B30" transform="translate(475.34375,236.6640625)"/>
<path d="M0 0 C0.67808716 0.00087616 1.35617432 0.00175232 2.05480957 0.00265503 C36.67610044 0.14952769 64.26791053 13.13496904 89.04296875 36.859375 C91 39.375 91 39.375 90.9765625 41.4765625 C81.96002218 59.00471687 58.21344876 70.68250563 40.38085938 76.64794922 C30.32952602 79.71735762 19.52085666 82.00638604 9 82.375 C7.71480469 82.4265625 6.42960938 82.478125 5.10546875 82.53125 C-16.24007466 83.10481182 -36.89070369 79.04546207 -56 69.375 C-57.36898437 68.69824219 -57.36898437 68.69824219 -58.765625 68.0078125 C-66.27159219 64.12903057 -72.73903248 59.2647149 -78.97265625 53.57421875 C-80.94884074 52.16471749 -80.94884074 52.16471749 -83.37890625 52.42578125 C-86.71826318 53.63511617 -89.10037728 55.42660811 -91.9375 57.5625 C-105.33225874 67.20404542 -121.59191619 72.20299401 -138 73.375 C-134.98493413 61.48702601 -126.30654121 49.18201169 -116 42.375 C-115.34 42.375 -114.68 42.375 -114 42.375 C-114.639375 41.735625 -115.27875 41.09625 -115.9375 40.4375 C-116.39253906 39.97730469 -116.84757812 39.51710938 -117.31640625 39.04296875 C-118.55418269 37.8166798 -119.81567447 36.61421204 -121.08984375 35.42578125 C-128.96373281 27.9287621 -134.66729301 19.76520415 -138 9.375 C-119.13625406 10.07756037 -101.88060721 16.37409054 -87.11328125 28.125 C-84.47836746 29.6835442 -83.01487325 29.83660739 -80 29.375 C-78.13824715 28.14892159 -78.13824715 28.14892159 -76.5 26.375 C-71.21636642 21.45883718 -65.24054324 17.95252127 -59 14.375 C-57.61361328 13.56869141 -57.61361328 13.56869141 -56.19921875 12.74609375 C-50.0306617 9.40442847 -43.68760523 7.16228371 -37 5.125 C-36.19361084 4.87862793 -35.38722168 4.63225586 -34.55639648 4.37841797 C-23.08156677 1.04393085 -11.9301919 -0.01700932 0 0 Z M47 33.375 C45.57958179 36.21583641 45.68547728 38.22977278 46 41.375 C47.37283423 43.91502013 47.37283423 43.91502013 50 45.375 C54.07099353 46.19253559 56.99359333 46.02916433 60.5 43.75 C62.44280469 40.67389257 62.52224493 38.95610811 62 35.375 C61.0785608 32.95195632 61.0785608 32.95195632 59 31.375 C53.93096864 29.96693573 51.15545643 30.07507871 47 33.375 Z " fill="#E03B30" transform="translate(294,308.625)"/>
<path d="M0 0 C1.24136719 0.3403125 2.48273438 0.680625 3.76171875 1.03125 C20.7584448 6.20188814 40.22326833 16.37876012 51 31 C52.046875 33.34375 52.046875 33.34375 52 36 C50.23533366 38.37049369 48.62324182 40.18234927 46.5 42.1875 C45.9112207 42.75484863 45.32244141 43.32219727 44.71582031 43.90673828 C23.33740339 63.91878084 -5.44693644 72.50674871 -34.39086914 72.02954102 C-59.37002892 71.10402325 -82.94971161 62.70319623 -101.9296875 46.28515625 C-104.55055199 44.65824225 -105.96368779 44.53214057 -109 45 C-111.00993613 46.26794969 -111.00993613 46.26794969 -112.875 48.0625 C-124.34927466 57.41611663 -141.11866926 63.58039511 -156 63 C-154.0839244 50.69792369 -143.57046374 41.29399717 -135 33 C-135.85851562 32.62101562 -135.85851562 32.62101562 -136.734375 32.234375 C-145.99180578 27.19067133 -151.63676584 17.24958085 -156 8 C-156 7.01 -156 6.02 -156 5 C-139.66273155 5.38074143 -120.84806054 11.92131114 -108.74609375 23.12890625 C-106.9413429 24.26658425 -106.9413429 24.26658425 -104.5703125 23.3828125 C-101.86828308 21.9291371 -99.76078416 20.3134334 -97.4375 18.3125 C-71.18036438 -3.07217746 -32.30387649 -8.9914269 0 0 Z M12.625 25.6875 C10.80724487 28.27430537 10.1576417 29.84716608 10 33 C10.80205278 35.55198612 11.58064099 36.67383188 13.6875 38.3125 C17.07161918 39.31858949 19.59666774 38.80442399 23 38 C25.421621 36.385586 25.89179692 35.32460924 26.8125 32.5625 C27.02826716 29.61368215 26.66553893 28.41503144 25 26 C20.77006718 23.18004479 16.90786247 22.64441351 12.625 25.6875 Z " fill="#E03B30" transform="translate(300,118)"/>
<path d="M0 0 C1.23588867 0.00563965 2.47177734 0.0112793 3.74511719 0.01708984 C28.75032015 0.34861065 51.49115259 8.63450888 70.3125 25.3125 C71.01632813 25.93382812 71.72015625 26.55515625 72.4453125 27.1953125 C75.02371641 29.60669429 76.91380681 31.37650545 78.3125 34.66015625 C78.3125 37.97962217 77.12647148 39.24764722 74.84594727 41.56201172 C74.31928467 42.05717285 73.79262207 42.55233398 73.25 43.0625 C72.70851318 43.58473145 72.16702637 44.10696289 71.60913086 44.64501953 C48.9430491 65.80693003 19.85184104 71.4413451 -10.18457031 70.5078125 C-31.85037127 69.2997946 -51.65467789 60.22292253 -68.0390625 46.2109375 C-69.63992945 45.15323278 -69.63992945 45.15323278 -71.49609375 45.3984375 C-74.64346376 46.71124424 -77.32834864 48.64079162 -80.125 50.5625 C-91.49026707 58.1099462 -103.95664594 62.81180378 -117.6875 62.3125 C-117.11637939 58.10905229 -115.69152094 55.34432636 -113.375 51.8125 C-112.78074219 50.8946875 -112.18648437 49.976875 -111.57421875 49.03125 C-108.70424422 44.89563453 -105.82552947 41.21510129 -101.9375 38 C-101.32390625 37.48824219 -100.7103125 36.97648437 -100.078125 36.44921875 C-99.61921875 36.07410156 -99.1603125 35.69898438 -98.6875 35.3125 C-99.25597656 34.85101563 -99.82445313 34.38953125 -100.41015625 33.9140625 C-107.84412961 27.63427866 -113.92368539 20.38993523 -117.6875 11.3125 C-117.6875 10.3225 -117.6875 9.3325 -117.6875 8.3125 C-102.33671822 7.81731349 -85.82678828 14.0293568 -74.43359375 24.34375 C-72.66246074 25.52775844 -72.66246074 25.52775844 -70.23828125 25.1875 C-67.29112862 24.17653187 -65.74132658 22.90086078 -63.4375 20.8125 C-45.57055562 6.04708751 -22.84122378 -0.10912406 0 0 Z M39.3125 28.3125 C38.11941838 31.97128362 37.98582256 33.61247692 39.625 37.125 C41.12828588 39.40165626 41.12828588 39.40165626 43.3125 40.3125 C47.10444611 40.73382735 48.84704193 40.60211836 52.125 38.5625 C54.82061552 35.87276304 54.82061552 35.87276304 55.3125 32.3125 C53.67173508 28.86689366 52.52737558 27.45575038 49.3125 25.3125 C44.98055594 24.85165489 42.30417857 24.9884127 39.3125 28.3125 Z " fill="#E03B30" transform="translate(141.6875,212.6875)"/>
</svg>
